<?xml version="1.0" encoding="UTF-8" standalone="no"?><!DOCTYPE svg PUBLIC "-//W3C//DTD SVG 1.1//EN" "http://www.w3.org/Graphics/SVG/1.1/DTD/svg11.dtd"><svg width="61px" height="58px" version="1.1" xmlns="http://www.w3.org/2000/svg" xmlns:xlink="http://www.w3.org/1999/xlink" xml:space="preserve" xmlns:serif="http://www.serif.com/" style="fill-rule:evenodd;clip-rule:evenodd;stroke-linejoin:round;stroke-miterlimit:1.41421;"><g transform="matrix(1,0,0,1,-366.648,-81.2938)"><path d="M376.777,99.051c0.019,-0.123 0.04,-0.247 0.062,-0.37c1.597,-8.934 10.063,-16.07 19.171,-16.243c0.254,-0.002 0.254,-0.002 0.508,0c9.22,0.175 17.438,7.625 19.139,16.613l2.822,0c4.523,0 8.194,3.672 8.194,8.194l-6,22.212c-1.714,4.522 -3.671,8.193 -8.194,8.194l-32.412,0c-4.522,0 -6.622,-3.672 -8.194,-8.194l-5,-22.212c0,-4.523 3.672,-8.194 8.194,-8.194l1.71,0Zm16.188,20.325l0,7.116c0.111,3.884 5.584,2.905 5.667,0l0,-7.116l7.116,0c3.884,-0.112 2.985,-5.42 0.162,-5.662c-3.092,-0.089 -4.185,-0.11 -7.278,-0.102l0,-7.02c-0.04,-1.395 -0.736,-2.223 -1.806,-2.64c-0.212,-0.082 -0.291,-0.126 -0.785,-0.183c-0.054,-0.003 -0.108,-0.006 -0.162,-0.009c-1.452,0 -2.345,0.746 -2.749,1.88c-0.1,0.28 -0.15,0.426 -0.165,0.952l0,7.057c-3.039,0.028 -4.078,0.06 -7.117,0.06c-1.644,0.047 -2.956,1.52 -2.823,3.076c0.127,1.469 0.092,2.513 2.823,2.591l7.117,0Zm16.473,-20.325c-1.355,-5.856 -5.987,-10.993 -13.357,-10.947c-6.182,0.118 -11.605,5.019 -13.25,10.947l26.607,0Z" style="fill:#404040;"/></g></svg>