<?xml version="1.0" encoding="UTF-8" standalone="no"?><!DOCTYPE svg PUBLIC "-//W3C//DTD SVG 1.1//EN" "http://www.w3.org/Graphics/SVG/1.1/DTD/svg11.dtd"><svg width="61px" height="31px" version="1.1" xmlns="http://www.w3.org/2000/svg" xmlns:xlink="http://www.w3.org/1999/xlink" xml:space="preserve" xmlns:serif="http://www.serif.com/" style="fill-rule:evenodd;clip-rule:evenodd;stroke-linejoin:round;stroke-miterlimit:1.41421;"><path d="M32,15c0,-1.656 -1.344,-3 -3,-3l-16,0c-1.656,0 -3,1.344 -3,3c0,1.656 1.344,3 3,3l16,0c1.656,0 3,-1.344 3,-3Z" style="fill:#404040;"/><path d="M32,26c0,-1.656 -1.344,-3 -3,-3l-6,0c-1.656,0 -3,1.344 -3,3c0,1.656 1.344,3 3,3l6,0c1.656,0 3,-1.344 3,-3Z" style="fill:#404040;"/><path d="M32,4c0,-1.656 -1.344,-3 -3,-3l-24,0c-1.656,0 -3,1.344 -3,3c0,1.656 1.344,3 3,3l24,0c1.656,0 3,-1.344 3,-3Z" style="fill:#404040;"/><path d="M51.935,25.03c1.266,0.005 2.432,-0.124 3.497,-0.389c1.065,-0.264 2.205,-0.663 3.42,-1.197l0.543,4.933c-2.348,1.094 -4.843,1.635 -7.483,1.623c-3.448,-0.016 -6.394,-0.904 -8.837,-2.667c-2.444,-1.762 -4.103,-4.167 -4.979,-7.215l-3.596,-0.016l0.016,-3.556l2.99,0.014c-0.025,-0.297 -0.037,-0.741 -0.034,-1.334c0.001,-0.377 0.031,-0.889 0.088,-1.535l-3.031,-0.014l0.016,-3.556l3.717,0.017c0.957,-2.959 2.678,-5.295 5.164,-7.008c2.486,-1.713 5.413,-2.562 8.78,-2.547c2.721,0.012 5.157,0.576 7.307,1.69l-0.588,4.927c-1.156,-0.517 -2.266,-0.919 -3.329,-1.207c-1.062,-0.288 -2.213,-0.434 -3.453,-0.44c-1.912,-0.008 -3.544,0.388 -4.894,1.191c-1.351,0.802 -2.38,1.942 -3.087,3.42l10.587,0.048l-0.016,3.556l-11.516,-0.052c-0.057,0.646 -0.086,1.158 -0.088,1.535c-0.003,0.593 0.009,1.038 0.034,1.334l11.557,0.052l-0.016,3.556l-10.668,-0.048c0.667,1.539 1.665,2.735 2.995,3.59c1.329,0.854 2.964,1.286 4.904,1.295Z" style="fill:#404040;fill-rule:nonzero;"/></svg>