<?xml version="1.0" encoding="UTF-8" standalone="no"?><!DOCTYPE svg PUBLIC "-//W3C//DTD SVG 1.1//EN" "http://www.w3.org/Graphics/SVG/1.1/DTD/svg11.dtd"><svg width="63px" height="49px" version="1.1" xmlns="http://www.w3.org/2000/svg" xmlns:xlink="http://www.w3.org/1999/xlink" xml:space="preserve" xmlns:serif="http://www.serif.com/" style="fill-rule:evenodd;clip-rule:evenodd;stroke-linejoin:round;stroke-miterlimit:1.41421;"><g transform="matrix(1,0,0,1,-307.875,-172.375)"><path d="M354,210.51c0,-1.937 -1.573,-3.51 -3.51,-3.51l-37.98,0c-1.937,0 -3.51,1.573 -3.51,3.51l0,1.98c0,1.937 1.573,3.51 3.51,3.51l37.98,0c1.937,0 3.51,-1.573 3.51,-3.51l0,-1.98Z" style="fill:#404040;"/></g><g transform="matrix(1,0,0,1,-307.875,-187.375)"><path d="M354,210.51c0,-1.937 -1.573,-3.51 -3.51,-3.51l-37.98,0c-1.937,0 -3.51,1.573 -3.51,3.51l0,1.98c0,1.937 1.573,3.51 3.51,3.51l37.98,0c1.937,0 3.51,-1.573 3.51,-3.51l0,-1.98Z" style="fill:#404040;"/></g><g transform="matrix(1,0,0,1,-307.875,-202.375)"><path d="M354,210.51c0,-1.937 -1.573,-3.51 -3.51,-3.51l-37.98,0c-1.937,0 -3.51,1.573 -3.51,3.51l0,1.98c0,1.937 1.573,3.51 3.51,3.51l37.98,0c1.937,0 3.51,-1.573 3.51,-3.51l0,-1.98Z" style="fill:#404040;"/></g><g transform="matrix(0.266667,0,0,1,-33.275,-172.375)"><path d="M354,210.51c0,-1.937 -5.898,-3.51 -13.162,-3.51l-18.676,0c-7.264,0 -13.162,1.573 -13.162,3.51l0,1.98c0,1.937 5.898,3.51 13.162,3.51l18.676,0c7.264,0 13.162,-1.573 13.162,-3.51l0,-1.98Z" style="fill:#404040;"/></g><g transform="matrix(0.266667,0,0,1,-33.275,-187.375)"><path d="M354,210.51c0,-1.937 -5.898,-3.51 -13.162,-3.51l-18.676,0c-7.264,0 -13.162,1.573 -13.162,3.51l0,1.98c0,1.937 5.898,3.51 13.162,3.51l18.676,0c7.264,0 13.162,-1.573 13.162,-3.51l0,-1.98Z" style="fill:#404040;"/></g><g transform="matrix(0.266667,0,0,1,-33.275,-202.375)"><path d="M354,210.51c0,-1.937 -5.898,-3.51 -13.162,-3.51l-18.676,0c-7.264,0 -13.162,1.573 -13.162,3.51l0,1.98c0,1.937 5.898,3.51 13.162,3.51l18.676,0c7.264,0 13.162,-1.573 13.162,-3.51l0,-1.98Z" style="fill:#404040;"/></g></svg>