<?xml version="1.0" encoding="UTF-8" standalone="no"?><!DOCTYPE svg PUBLIC "-//W3C//DTD SVG 1.1//EN" "http://www.w3.org/Graphics/SVG/1.1/DTD/svg11.dtd"><svg width="65px" height="49px" version="1.1" xmlns="http://www.w3.org/2000/svg" xmlns:xlink="http://www.w3.org/1999/xlink" xml:space="preserve" xmlns:serif="http://www.serif.com/" style="fill-rule:evenodd;clip-rule:evenodd;stroke-linejoin:round;stroke-miterlimit:1.41421;"><g><path d="M62.493,12.606l0,25.751c0,3.94 -3.198,7.138 -7.138,7.138l-45.71,0c-3.94,0 -7.138,-3.198 -7.138,-7.138l0,-13.751l59.986,0l0,-12Zm-7.138,-9.101c3.94,0 7.138,3.198 7.138,7.138l0,1.963l-59.986,0l0,12l0,-12l0,-1.963c0,-3.94 3.198,-7.138 7.138,-7.138l45.71,0Z" style="fill:#404040;"/></g><g><path d="M62.493,12.606l0,25.751c0,3.94 -3.198,7.138 -7.138,7.138l-45.71,0c-3.94,0 -7.138,-3.198 -7.138,-7.138l0,-13.751l59.986,0l0,-12Zm-7.138,-9.101c3.94,0 7.138,3.198 7.138,7.138l0,1.963l-59.986,0l0,12l0,-12l0,-1.963c0,-3.94 3.198,-7.138 7.138,-7.138l45.71,0Z" style="fill:#404040;"/></g></svg>