<?xml version="1.0" encoding="UTF-8" standalone="no"?><!DOCTYPE svg PUBLIC "-//W3C//DTD SVG 1.1//EN" "http://www.w3.org/Graphics/SVG/1.1/DTD/svg11.dtd"><svg width="60px" height="56px" version="1.1" xmlns="http://www.w3.org/2000/svg" xmlns:xlink="http://www.w3.org/1999/xlink" xml:space="preserve" xmlns:serif="http://www.serif.com/" style="fill-rule:evenodd;clip-rule:evenodd;stroke-linejoin:round;stroke-miterlimit:1.41421;"><path d="M10.003,17.007c0.02,-0.123 0.04,-0.246 0.063,-0.37c1.597,-8.933 10.063,-16.07 19.17,-16.243c0.255,-0.001 0.254,-0.001 0.509,0c9.219,0.176 17.438,7.625 19.138,16.613l2.823,0c4.523,0 8.194,3.672 8.194,8.194l-6,22.212c-1.714,4.522 -3.671,8.194 -8.194,8.194l-32.412,0c-4.522,0 -6.623,-3.672 -8.194,-8.194l-5,-22.212c0,-4.522 3.671,-8.194 8.194,-8.194l1.709,0Zm16.189,20.325l0,7.117c0.111,3.883 5.583,2.904 5.666,0l0,-7.117l7.117,0c3.884,-0.111 2.984,-5.42 0.162,-5.662c-3.092,-0.088 -4.185,-0.109 -7.279,-0.102l0,-7.019c-0.04,-1.396 -0.735,-2.224 -1.805,-2.641c-0.212,-0.082 -0.291,-0.126 -0.786,-0.182c-0.053,-0.003 -0.107,-0.006 -0.161,-0.01c-1.452,0 -2.345,0.746 -2.75,1.88c-0.099,0.28 -0.149,0.426 -0.164,0.953l0,7.057c-3.039,0.027 -4.078,0.059 -7.117,0.059c-1.645,0.047 -2.957,1.521 -2.823,3.076c0.126,1.469 0.092,2.513 2.823,2.591l7.117,0Zm16.473,-20.325c-1.356,-5.855 -5.987,-10.993 -13.357,-10.946c-6.183,0.117 -11.605,5.019 -13.25,10.946l26.607,0Z" style="fill:#404040;"/></svg>