<?xml version="1.0" encoding="UTF-8" standalone="no"?><!DOCTYPE svg PUBLIC "-//W3C//DTD SVG 1.1//EN" "http://www.w3.org/Graphics/SVG/1.1/DTD/svg11.dtd"><svg width="60px" height="56px" version="1.1" xmlns="http://www.w3.org/2000/svg" xmlns:xlink="http://www.w3.org/1999/xlink" xml:space="preserve" xmlns:serif="http://www.serif.com/" style="fill-rule:evenodd;clip-rule:evenodd;stroke-linejoin:round;stroke-miterlimit:1.41421;"><path d="M9.903,16.614c0.02,-0.123 0.04,-0.246 0.063,-0.37c1.597,-8.933 10.063,-16.07 19.17,-16.243c0.255,-0.001 0.254,-0.001 0.509,0c9.219,0.176 17.438,7.625 19.138,16.613l2.823,0c4.523,0 8.194,3.672 8.194,8.194l-6,22.212c-1.714,4.522 -3.671,8.194 -8.194,8.194l-32.412,0c-4.522,0 -6.623,-3.672 -8.194,-8.194l-5,-22.212c0,-4.522 3.671,-8.194 8.194,-8.194l1.709,0Zm32.662,0c-1.356,-5.855 -5.987,-10.993 -13.357,-10.946c-6.183,0.117 -11.605,5.019 -13.25,10.946l26.607,0Z" style="fill:#404040;"/></svg>