<?xml version="1.0" encoding="UTF-8" standalone="no"?><!DOCTYPE svg PUBLIC "-//W3C//DTD SVG 1.1//EN" "http://www.w3.org/Graphics/SVG/1.1/DTD/svg11.dtd"><svg width="61px" height="58px" version="1.1" xmlns="http://www.w3.org/2000/svg" xmlns:xlink="http://www.w3.org/1999/xlink" xml:space="preserve" xmlns:serif="http://www.serif.com/" style="fill-rule:evenodd;clip-rule:evenodd;stroke-linejoin:round;stroke-miterlimit:1.41421;"><g transform="matrix(1,0,0,1,-0.5,-0.125)"><path d="M9.15,21.52c-0.034,-1.274 0.058,-2.564 0.289,-3.858c1.693,-9.467 10.439,-17.096 20.401,-17.286c0.271,-0.001 0.27,-0.001 0.541,0c10.965,0.209 20.617,10.105 20.708,21.144l0.992,0c4.523,0 8.194,3.387 8.194,7.558l-6,20.488c-1.714,4.172 -3.671,7.558 -8.194,7.559l-32.412,0c-4.522,0 -6.623,-3.387 -8.194,-7.559l-5,-20.488c0,-4.171 3.671,-7.558 8.194,-7.558l0.481,0Zm35.901,-0.062c-0.055,-5.667 -2.922,-11.395 -8.466,-13.985c-2.11,-0.986 -3.951,-1.447 -6.673,-1.43c-7.925,0.151 -14.701,7.506 -14.99,15.415l1.53,0c-0.007,0.021 -0.013,0.041 -0.019,0.062l26.607,0c-0.005,-0.021 -0.011,-0.041 -0.017,-0.062l2.028,0Z" style="fill:#404040;"/></g></svg>