<?xml version="1.0" encoding="UTF-8" standalone="no"?><!DOCTYPE svg PUBLIC "-//W3C//DTD SVG 1.1//EN" "http://www.w3.org/Graphics/SVG/1.1/DTD/svg11.dtd"><svg width="61px" height="52px" version="1.1" xmlns="http://www.w3.org/2000/svg" xmlns:xlink="http://www.w3.org/1999/xlink" xml:space="preserve" xmlns:serif="http://www.serif.com/" style="fill-rule:evenodd;clip-rule:evenodd;stroke-linejoin:round;stroke-miterlimit:1.41421;"><path d="M28.66,35.063c0,5.363 -0.004,10.725 0.01,16.088c0,0.374 -0.075,0.499 -0.523,0.488c-1.318,-0.032 -2.639,-0.034 -3.957,0c-0.473,0.012 -0.544,-0.136 -0.542,-0.515c0.017,-2.534 0.001,-5.068 0.018,-7.602c0.002,-0.358 -0.089,-0.469 -0.504,-0.468c-5.375,0.013 -10.751,0.012 -16.126,0c-0.379,-0.001 -0.528,0.111 -0.633,0.433c-0.801,2.446 -1.145,4.951 -1.185,7.492c-0.006,0.392 -0.115,0.487 -0.539,0.477c-1.287,-0.027 -2.574,-0.023 -3.86,-0.002c-0.366,0.006 -0.459,-0.077 -0.451,-0.412c0.094,-4.086 1.023,-8.03 2.479,-11.878c2.892,-7.642 7.539,-14.248 14.275,-19.604c1.272,-1.011 2.594,-1.972 4.019,-2.801c1.153,-0.67 2.431,-1.061 3.817,-1.073c2.05,-0.017 3.691,1.46 3.699,3.334c0.011,2.784 0.003,5.569 0.003,8.353c0,2.563 0,5.127 0,7.69Zm-20.022,3.422c0.08,-0.02 14.994,0.021 14.994,0.021l0.131,-18.18c-6.231,4.378 -13.137,11.613 -15.125,18.159Z" style="fill:#16993b;"/><path d="M47.025,13.505c2.345,-2.406 5.184,-4.037 8.733,-4.55c1.364,-0.197 2.725,-0.146 4.083,0.061c0.212,0.033 0.378,0.066 0.242,0.33c-1.666,3.245 -4.134,5.668 -8.178,6.41c-3.745,0.687 -9.453,-0.71 -11.957,-4.212c-1.336,-1.869 -1.864,-3.925 -1.836,-6.122c0.019,-1.543 0.262,-3.05 0.97,-4.47c0.379,-0.759 0.404,-0.769 1.186,-0.339c4.704,2.585 6.946,6.378 6.765,11.347c-0.016,0.455 -0.079,0.909 -0.12,1.364c-0.026,0.092 -0.084,0.201 0.112,0.181Z" style="fill:#16993b;"/><g id="Layer1"><path d="M47.396,32.481c1.839,0.532 3.444,1.417 4.736,2.727c2.221,2.253 2.919,4.952 2.658,7.878c-0.363,4.063 -3.04,6.443 -7.113,7.729c-1.811,0.572 -3.682,0.834 -5.609,0.819c-3.029,-0.024 -6.06,-0.014 -9.09,0.002c-0.409,0.002 -0.506,-0.1 -0.505,-0.464c0.011,-11.669 0.011,-23.339 0,-35.009c0,-0.354 0.078,-0.481 0.499,-0.473c2.409,0.048 4.823,-0.09 7.228,0.125c2.552,0.229 4.999,0.776 7.167,2.092c2.386,1.449 3.683,3.494 3.939,6.061c0.176,1.766 -0.043,3.5 -0.843,5.145c-0.63,1.295 -1.55,2.377 -2.858,3.174c-0.076,0.047 -0.189,0.067 -0.209,0.194Zm-9.719,3.07l-0.112,11.766c0,0 13.003,1.446 12.412,-6.391c0,0 0.577,-6.316 -12.3,-5.375Zm-0.029,-15.583l-0.083,11.586c0,0 9.624,1.424 9.187,-6.293c0,0 0.427,-6.219 -9.104,-5.293Z" style="fill:#16993b;"/></g></svg>