<?xml version="1.0" encoding="UTF-8" standalone="no"?><!DOCTYPE svg PUBLIC "-//W3C//DTD SVG 1.1//EN" "http://www.w3.org/Graphics/SVG/1.1/DTD/svg11.dtd"><svg width="65px" height="64px" version="1.1" xmlns="http://www.w3.org/2000/svg" xmlns:xlink="http://www.w3.org/1999/xlink" xml:space="preserve" xmlns:serif="http://www.serif.com/" style="fill-rule:evenodd;clip-rule:evenodd;stroke-linejoin:round;stroke-miterlimit:1.41421;"><g transform="matrix(1,0,0,1,-75.6041,-434.605)"><path d="M125,472.728c1.839,0.531 3.444,1.416 4.736,2.727c2.221,2.253 2.919,4.952 2.658,7.877c-0.363,4.064 -3.039,6.443 -7.113,7.73c-1.811,0.572 -3.682,0.834 -5.608,0.818c-3.03,-0.024 -6.061,-0.013 -9.091,0.003c-0.408,0.002 -0.506,-0.1 -0.505,-0.464c0.011,-11.67 0.011,-23.34 0,-35.01c0,-0.354 0.078,-0.481 0.499,-0.472c2.409,0.048 4.824,-0.091 7.228,0.125c2.552,0.228 4.999,0.775 7.167,2.091c2.387,1.449 3.683,3.494 3.939,6.061c0.176,1.766 -0.043,3.5 -0.843,5.145c-0.63,1.295 -1.55,2.377 -2.858,3.174c-0.076,0.047 -0.189,0.067 -0.209,0.195Zm-9.886,8.964c0,-1.87 0.009,-3.74 -0.008,-5.609c-0.004,-0.347 0.074,-0.489 0.497,-0.493c1.171,-0.01 2.342,-0.091 3.513,-0.097c2.122,-0.011 4.081,0.524 5.828,1.609c2.097,1.303 2.887,3.164 2.601,5.403c-0.286,2.243 -1.716,3.719 -3.969,4.583c-1.303,0.499 -2.666,0.729 -4.087,0.702c-1.302,-0.025 -2.605,-0.021 -3.906,0.004c-0.404,0.008 -0.48,-0.118 -0.477,-0.45c0.016,-1.884 0.008,-3.768 0.008,-5.652Zm0,-15.7c0,-1.796 0.01,-3.592 -0.01,-5.388c-0.003,-0.347 0.113,-0.448 0.487,-0.458c1.514,-0.038 3.024,-0.099 4.506,0.283c2.644,0.682 4.035,2.208 4.233,4.691c0.076,0.942 0.07,1.885 -0.205,2.806c-0.631,2.121 -2.237,3.277 -4.553,3.686c-1.362,0.24 -2.753,0.205 -4.134,0.257c-0.373,0.014 -0.325,-0.195 -0.325,-0.4c0.001,-1.826 0.001,-3.651 0.001,-5.477Z" style="fill:#16993b;"/></g><g transform="matrix(1,0,0,1,-75.6041,-434.605)"><path d="M106.264,475.31c0,5.362 -0.004,10.725 0.01,16.087c0.001,0.375 -0.075,0.499 -0.523,0.488c-1.318,-0.032 -2.639,-0.033 -3.957,0.001c-0.473,0.012 -0.544,-0.136 -0.542,-0.516c0.018,-2.534 0.001,-5.068 0.018,-7.601c0.003,-0.358 -0.089,-0.47 -0.504,-0.469c-5.375,0.013 -10.75,0.013 -16.126,0.001c-0.379,-0.001 -0.528,0.11 -0.633,0.432c-0.801,2.446 -1.145,4.951 -1.185,7.493c-0.006,0.391 -0.115,0.486 -0.539,0.477c-1.286,-0.028 -2.574,-0.023 -3.86,-0.002c-0.365,0.006 -0.459,-0.077 -0.451,-0.413c0.095,-4.085 1.023,-8.03 2.479,-11.877c2.892,-7.643 7.539,-14.249 14.275,-19.604c1.273,-1.012 2.594,-1.973 4.02,-2.802c1.152,-0.67 2.43,-1.061 3.816,-1.072c2.05,-0.017 3.691,1.46 3.699,3.333c0.012,2.785 0.003,5.569 0.003,8.353c0,2.564 0,5.127 0,7.691Zm-5.003,-14.684l0,0.489c0,5.761 -0.003,11.522 0.009,17.283c0.001,0.355 -0.077,0.471 -0.497,0.47c-4.757,-0.014 -9.514,-0.015 -14.271,0.001c-0.463,0.002 -0.447,-0.148 -0.345,-0.451c0.703,-2.083 1.778,-4.008 3.05,-5.847c2.833,-4.097 6.441,-7.579 10.46,-10.732c0.497,-0.39 1.007,-0.767 1.594,-1.213Z" style="fill:#16993b;"/></g><g transform="matrix(0.097753,0,0,0.0884132,49.025,8.763)"><path d="M0,117.44c23.987,-27.206 53.03,-45.653 89.334,-51.455c13.953,-2.23 27.881,-1.659 41.77,0.689c2.167,0.366 3.872,0.744 2.482,3.735c-17.05,36.696 -42.291,64.1 -83.66,72.494c-38.314,7.774 -96.709,-8.034 -122.318,-47.635c-13.675,-21.148 -19.068,-44.398 -18.789,-69.242c0.196,-17.455 2.685,-34.5 9.93,-50.559c3.873,-8.585 4.124,-8.704 12.126,-3.843c48.128,29.24 71.055,72.141 69.209,128.34c-0.17,5.152 -0.808,10.288 -1.228,15.432c-0.264,1.043 -0.857,2.27 1.144,2.044Z" style="fill:#16993b;"/></g></svg>