<?xml version="1.0" encoding="utf-8"?>
<!-- Generator: Adobe Illustrator 19.0.0, SVG Export Plug-In . SVG Version: 6.00 Build 0)  -->
<svg version="1.1" id="Layer_1" xmlns="http://www.w3.org/2000/svg" xmlns:xlink="http://www.w3.org/1999/xlink" x="0px" y="0px"
	 viewBox="0 0 40.1 46.2" style="enable-background:new 0 0 40.1 46.2;" xml:space="preserve">
<style type="text/css">
	.st0{fill-rule:evenodd;clip-rule:evenodd;fill:#404040;}
</style>
<path id="XMLID_124_" class="st0" d="M37.3,14.7c1.2-0.5,2-1.1,2.1-1.7c0.2-1.9,0.2-3.8,0-4.4l0-0.1c-0.9,2-9.3,3.5-19.4,3.5
	C9.8,12,1.4,10.5,0.5,8.5C0.3,9.7,0.3,11.2,0.4,13c0,0.7,0.7,1.3,2.1,1.8c-1.3,1.2-2.2,2.9-2.2,4.8v19.7c0,3.6,3.2,6.5,6.8,6.5H33
	c3.6,0,6.3-2.9,6.3-6.5V19.5C39.3,17.6,38.6,15.9,37.3,14.7z M36.3,37.2c0,3.1-2.2,5.5-5.3,5.5c-6.1,0-15.8,0-21.9,0
	c-3.1,0-5.8-2.5-5.8-5.5c0-2.5,0-5,0-5c0-10.2,33-10.1,33,0C36.3,32.3,36.3,34.7,36.3,37.2z"/>
<path class="st0" d="M0.4,4.6c0-2.2,8.7-3.9,19.5-3.9c10.8,0,19.5,1.7,19.5,3.9L39.3,5c-0.9,2-9.3,3.5-19.4,3.5
	C9.8,8.5,1.4,6.9,0.5,5L0.4,4.6z"/>
</svg>
