<?xml version="1.0" encoding="UTF-8" standalone="no"?><!DOCTYPE svg PUBLIC "-//W3C//DTD SVG 1.1//EN" "http://www.w3.org/Graphics/SVG/1.1/DTD/svg11.dtd"><svg width="52px" height="59px" version="1.1" xmlns="http://www.w3.org/2000/svg" xmlns:xlink="http://www.w3.org/1999/xlink" xml:space="preserve" xmlns:serif="http://www.serif.com/" style="fill-rule:evenodd;clip-rule:evenodd;stroke-linejoin:round;stroke-miterlimit:1.41421;"><path d="M44.25,30.883c0,-0.761 -0.622,-1.383 -1.383,-1.383l-4.609,0c-0.761,0 -1.383,0.622 -1.383,1.383l0,4.609c0,0.761 0.622,1.383 1.383,1.383l4.609,0c0.761,0 1.383,-0.622 1.383,-1.383l0,-4.609Zm0,14.75c0,-0.761 -0.622,-1.383 -1.383,-1.383l-4.609,0c-0.761,0 -1.383,0.622 -1.383,1.383l0,4.609c0,0.761 0.622,1.383 1.383,1.383l4.609,0c0.761,0 1.383,-0.622 1.383,-1.383l0,-4.609Zm-14.75,-14.75c0,-0.761 -0.622,-1.383 -1.383,-1.383l-4.609,0c-0.761,0 -1.383,0.622 -1.383,1.383l0,4.609c0,0.761 0.622,1.383 1.383,1.383l4.609,0c0.761,0 1.383,-0.622 1.383,-1.383l0,-4.609Zm0,14.75c0,-0.761 -0.622,-1.383 -1.383,-1.383l-4.609,0c-0.761,0 -1.383,0.622 -1.383,1.383l0,4.609c0,0.761 0.622,1.383 1.383,1.383l4.609,0c0.761,0 1.383,-0.622 1.383,-1.383l0,-4.609Zm-14.75,-14.75c0,-0.761 -0.622,-1.383 -1.383,-1.383l-4.609,0c-0.761,0 -1.383,0.622 -1.383,1.383l0,4.609c0,0.761 0.622,1.383 1.383,1.383l4.609,0c0.761,0 1.383,-0.622 1.383,-1.383l0,-4.609Zm0,14.75c0,-0.761 -0.622,-1.383 -1.383,-1.383l-4.609,0c-0.761,0 -1.383,0.622 -1.383,1.383l0,4.609c0,0.761 0.622,1.383 1.383,1.383l4.609,0c0.761,0 1.383,-0.622 1.383,-1.383l0,-4.609Zm-13.367,-23.508l48.859,0c0.761,0 1.383,0.622 1.383,1.383l0,29.961c0,3.054 -2.478,5.531 -5.531,5.531l-40.563,0c-3.053,0 -5.531,-2.477 -5.531,-5.531l0,-29.961c0,-0.761 0.622,-1.383 1.383,-1.383m48.859,-3.687l-48.859,0c-0.761,0 -1.383,-0.623 -1.383,-1.383l0,-4.149c0,-3.053 2.478,-5.531 5.531,-5.531l5.531,0l0,-5.992c0,-0.761 0.623,-1.383 1.383,-1.383l4.61,0c0.76,0 1.383,0.622 1.383,1.383l0,5.992l14.749,0l0,-5.992c0,-0.761 0.623,-1.383 1.383,-1.383l4.61,0c0.76,0 1.382,0.622 1.382,1.383l0,5.992l5.532,0c3.053,0 5.531,2.478 5.531,5.531l0,4.149c0,0.76 -0.622,1.383 -1.383,1.383" style="fill:#404040;fill-rule:nonzero;"/></svg>