<?xml version="1.0" encoding="utf-8"?>
<!-- Generator: Adobe Illustrator 19.0.0, SVG Export Plug-In . SVG Version: 6.00 Build 0)  -->
<svg version="1.1" id="Layer_1" xmlns:serif="http://www.serif.com/"
	 xmlns="http://www.w3.org/2000/svg" xmlns:xlink="http://www.w3.org/1999/xlink" x="0px" y="0px" viewBox="190.5 39.3 570.7 471.6"
	 style="enable-background:new 190.5 39.3 570.7 471.6;" xml:space="preserve">
<style type="text/css">
	.st0{fill:#404040;}
</style>
<path class="st0" d="M546.3,52.6c-2.3-0.6-3.9-2.9-3.5-5.3c0.3-2.4,2.4-4.2,4.8-4.2c0-0.1,0-0.1,0.1-0.1
	c117.8,0,213.5,104,213.5,232.1s-95.7,232.1-213.5,232.1c0,0,0,0-0.1,0c-2.5,0-4.5-1.9-4.9-4.3s1.2-4.8,3.6-5.4
	c88.2-28.4,152.6-117.3,152.6-222.4S634.5,81.2,546.3,52.6L546.3,52.6z"/>
<path class="st0" d="M426,39.3c130.1,0,235.8,105.7,235.8,235.8S556.1,510.9,426,510.9S190.2,405.2,190.2,275.1S295.8,39.3,426,39.3
	z M384.8,236.7c4.8-15.9,13-28.5,24.4-37.7s26.7-13.9,45.8-13.9c12.9,0,24.6,1.5,35.1,4.6s21.3,6.9,32.3,11.5l5.6-45.6
	c-10.2-5.1-21.7-8.9-34.5-11.3c-12.8-2.4-25.6-3.6-38.5-3.6c-15.3,0-29.7,2.2-43.2,6.7c-13.4,4.4-25.6,10.8-36.3,19.2
	c-10.8,8.3-20,18.4-27.6,30.3c-7.7,11.8-13.3,25.2-16.8,40h-29.5l-12.5,35.1h37.5c0,3.5,0.1,7.8,0.2,12.9c0.1,5.1,0.5,9.3,1,12.5
	h-37.1L278.6,332h58.1c9.7,24.5,25,43.5,45.8,57.1c20.8,13.6,45,20.4,72.4,20.4c12.9,0,25.8-1.2,38.5-3.6
	c12.8-2.4,24.3-6.2,34.5-11.3l-5.6-45.6c-11,4.6-21.8,8.4-32.3,11.5c-10.5,3.1-22.2,4.6-35.1,4.6c-15.1,0-27.7-2.9-37.9-8.7
	c-10.2-5.8-18.4-13.9-24.6-24.4h73.9l12.1-34.7h-97.3c-0.8-3-1.3-7-1.4-12.1s-0.2-9.5-0.2-13.3h93.6l12.9-35.1L384.8,236.7
	L384.8,236.7z"/>
</svg>
