<?xml version="1.0" encoding="UTF-8" standalone="no"?><!DOCTYPE svg PUBLIC "-//W3C//DTD SVG 1.1//EN" "http://www.w3.org/Graphics/SVG/1.1/DTD/svg11.dtd"><svg width="65px" height="49px" version="1.1" xmlns="http://www.w3.org/2000/svg" xmlns:xlink="http://www.w3.org/1999/xlink" xml:space="preserve" xmlns:serif="http://www.serif.com/" style="fill-rule:evenodd;clip-rule:evenodd;stroke-linejoin:round;stroke-miterlimit:1.41421;"><path d="M2.451,7.3c-0.007,-0.099 -0.01,-0.199 -0.01,-0.3c0,-2.412 1.958,-4.37 4.369,-4.37c2.204,0 4.029,1.635 4.327,3.757c0.299,-2.122 2.124,-3.757 4.327,-3.757c1.909,0 3.534,1.227 4.128,2.934c0.595,-1.707 2.219,-2.934 4.128,-2.934c2.204,0 4.029,1.635 4.327,3.757c0.298,-2.122 2.123,-3.757 4.327,-3.757c2.292,0 4.175,1.769 4.355,4.015c0.181,-2.246 2.064,-4.015 4.356,-4.015c2.204,0 4.029,1.635 4.327,3.757c0.298,-2.122 2.123,-3.757 4.327,-3.757c1.908,0 3.533,1.227 4.128,2.934c0.594,-1.707 2.219,-2.934 4.127,-2.934c2.204,0 4.029,1.635 4.327,3.757c0.077,0.549 0.104,0.476 0.044,0.913l0.033,0l0,38.526l-60,0l0,-38.526l0.053,0Zm18.185,20.542l-12.166,0l0,6.375l12.166,0l0,-6.375Zm21.904,0.795c0.703,1.731 1.776,3.074 3.219,4.032c1.443,0.957 3.109,1.435 4.996,1.435c1.924,0 3.552,-0.314 4.884,-0.943l-0.333,-2.72c-1.684,0.703 -3.201,1.055 -4.551,1.055c-2.165,0 -3.793,-0.953 -4.885,-2.859l5.495,0l0.666,-1.942l-6.743,0c-0.037,-0.293 -0.07,-0.59 -0.098,-0.892c-0.027,-0.301 -0.041,-0.608 -0.041,-0.918l0,-0.522l6.771,0l0.666,-1.942l-7.16,0c0.851,-2.794 2.628,-4.191 5.329,-4.191c1.35,0 2.867,0.352 4.551,1.055l0.333,-2.72c-1.332,-0.629 -2.96,-0.944 -4.884,-0.944c-1.055,0 -2.049,0.158 -2.984,0.472c-0.934,0.315 -1.771,0.763 -2.511,1.346c-0.74,0.583 -1.374,1.295 -1.901,2.137c-0.527,0.842 -0.921,1.79 -1.18,2.845l-2.109,0l-0.61,1.942l2.47,0l0,0.522c0,0.255 0.009,0.534 0.027,0.836c0.019,0.301 0.047,0.626 0.084,0.974l-2.748,0l-0.666,1.942l3.913,0Zm-6.862,-9.67l-27.417,0l0,6.125l27.417,0l0,-6.125Z" style="fill:#404040;"/></svg>