<?xml version="1.0" encoding="UTF-8" standalone="no"?><!DOCTYPE svg PUBLIC "-//W3C//DTD SVG 1.1//EN" "http://www.w3.org/Graphics/SVG/1.1/DTD/svg11.dtd"><svg width="59px" height="59px" version="1.1" xmlns="http://www.w3.org/2000/svg" xmlns:xlink="http://www.w3.org/1999/xlink" xml:space="preserve" xmlns:serif="http://www.serif.com/" style="fill-rule:evenodd;clip-rule:evenodd;stroke-linejoin:round;stroke-miterlimit:1.41421;"><path d="M35.939,41.153l-10.314,-7.496c-0.362,-0.268 -0.573,-0.69 -0.573,-1.134l0,-19.68c0,-0.772 0.632,-1.403 1.404,-1.403l5.612,0c0.772,0 1.404,0.631 1.404,1.403l0,16.102l7.425,5.402c0.632,0.456 0.76,1.333 0.304,1.965l-3.297,4.537c-0.457,0.62 -1.334,0.76 -1.965,0.304m-6.677,-40.939c-16.02,0 -29,12.98 -29,29c0,16.02 12.98,29 29,29c16.02,0 29,-12.98 29,-29c0,-16.02 -12.98,-29 -29,-29" style="fill:#404040;fill-rule:nonzero;"/></svg>