<?xml version="1.0" encoding="UTF-8" standalone="no"?><!DOCTYPE svg PUBLIC "-//W3C//DTD SVG 1.1//EN" "http://www.w3.org/Graphics/SVG/1.1/DTD/svg11.dtd"><svg width="59px" height="49px" version="1.1" xmlns="http://www.w3.org/2000/svg" xmlns:xlink="http://www.w3.org/1999/xlink" xml:space="preserve" xmlns:serif="http://www.serif.com/" style="fill-rule:evenodd;clip-rule:evenodd;stroke-linejoin:round;stroke-miterlimit:1.41421;"><g transform="matrix(0.905473,0,0,0.984261,-454.064,-297.603)"><path d="M541.854,303.995c-0.264,-0.065 -0.434,-0.3 -0.398,-0.549c0.035,-0.248 0.265,-0.434 0.538,-0.434c0.002,-0.012 0.004,-0.012 0.006,-0.012c13.246,0 24,10.754 24,24c0,13.246 -10.754,24 -24,24c-0.002,0 -0.004,0 -0.006,0c-0.277,-0.002 -0.511,-0.192 -0.547,-0.445c-0.036,-0.253 0.136,-0.492 0.403,-0.561c9.915,-2.941 17.15,-12.129 17.15,-22.994c0,-10.865 -7.235,-20.053 -17.146,-23.005Z" style="fill:#404040;"/></g><g transform="matrix(1,0,0,1,-437.683,-302.75)"><path d="M462,303c13.246,0 24,10.754 24,24c0,13.246 -10.754,24 -24,24c-13.246,0 -24,-10.754 -24,-24c0,-13.246 10.754,-24 24,-24Zm-4.195,20.097c0.493,-1.616 1.321,-2.896 2.485,-3.841c1.164,-0.945 2.718,-1.417 4.663,-1.417c1.315,0 2.506,0.157 3.574,0.472c1.068,0.315 2.164,0.705 3.287,1.171l0.575,-4.642c-1.041,-0.521 -2.212,-0.904 -3.513,-1.151c-1.301,-0.246 -2.608,-0.369 -3.923,-0.369c-1.561,0 -3.026,0.226 -4.396,0.677c-1.369,0.452 -2.602,1.103 -3.697,1.952c-1.096,0.849 -2.034,1.876 -2.814,3.081c-0.781,1.205 -1.349,2.561 -1.705,4.067l-2.999,0l-1.274,3.574l3.821,0c0,0.356 0.007,0.795 0.02,1.315c0.014,0.52 0.048,0.945 0.103,1.274l-3.78,0l-1.232,3.533l5.916,0c0.986,2.492 2.54,4.43 4.663,5.813c2.122,1.383 4.58,2.074 7.374,2.074c1.315,0 2.622,-0.123 3.923,-0.369c1.301,-0.247 2.472,-0.63 3.513,-1.151l-0.575,-4.642c-1.123,0.466 -2.219,0.856 -3.287,1.171c-1.068,0.315 -2.259,0.472 -3.574,0.472c-1.534,0 -2.821,-0.294 -3.862,-0.883c-1.04,-0.589 -1.876,-1.417 -2.506,-2.485l7.518,0l1.233,-3.533l-9.901,0c-0.082,-0.302 -0.13,-0.713 -0.144,-1.233c-0.014,-0.52 -0.02,-0.972 -0.02,-1.356l9.531,0l1.314,-3.574l-10.311,0Z" style="fill:#404040;"/></g></svg>