<?xml version="1.0" encoding="UTF-8" standalone="no"?><!DOCTYPE svg PUBLIC "-//W3C//DTD SVG 1.1//EN" "http://www.w3.org/Graphics/SVG/1.1/DTD/svg11.dtd"><svg width="61px" height="63px" version="1.1" xmlns="http://www.w3.org/2000/svg" xmlns:xlink="http://www.w3.org/1999/xlink" xml:space="preserve" xmlns:serif="http://www.serif.com/" style="fill-rule:evenodd;clip-rule:evenodd;stroke-linejoin:round;stroke-miterlimit:1.41421;"><path d="M30.538,18.015l0.204,0l0,0c5.412,0.046 10.833,1.078 16.261,3.08c5.496,2.026 10.09,5.407 12.523,11.076c1.348,2.546 0,5.121 0,5.121c-0.83,2.322 -2.204,4.291 -3.932,5.939c1.033,16.404 -2.685,19.146 -2.685,19.146c-3.584,0.741 -8.098,-3.609 -10.779,-6.688c-3.351,2.715 -7.294,4.753 -11.233,6.233l-0.369,0c-4.038,-1.516 -8.491,-3.62 -12.231,-6.437c-2.656,3.087 -7.292,7.65 -10.956,6.892c0,0 -3.718,-2.742 -2.685,-19.146c-1.728,-1.648 -3.102,-3.617 -3.932,-5.939c0,0 -1.348,-2.575 0,-5.121c2.433,-5.669 7.027,-9.05 12.523,-11.076c5.43,-2.003 11.864,-3.035 17.291,-3.08l0,0Zm0.102,7.743l-0.006,0c-3.834,0.034 -8.528,0.853 -12.129,2.272c-2.444,0.964 -3.999,2.246 -3.412,5.31c0.347,1.806 -0.033,3.045 -2.278,2.72c-1.312,-0.188 -2.362,0.507 -2.537,2.102c-0.182,1.66 0.509,2.871 2.072,2.887c1.669,0.016 1.91,1.249 2.437,2.342c2.656,5.503 6.524,9.653 11.971,12.132c0.975,0.444 2.938,0.679 3.878,0.696l0.002,0c0.94,-0.017 1.879,-0.252 2.854,-0.696c5.447,-2.479 9.315,-6.629 11.971,-12.132c0.527,-1.093 0.768,-2.326 2.437,-2.342c1.563,-0.016 2.254,-1.227 2.072,-2.887c-0.175,-1.595 -1.225,-2.29 -2.537,-2.102c-2.245,0.325 -2.625,-0.914 -2.278,-2.72c0.587,-3.064 -0.968,-4.346 -3.412,-5.31c-3.601,-1.419 -7.271,-2.238 -11.105,-2.272Zm-3.009,-25.632l0,-0.001l6.451,0l0,0.008c1.469,0.027 2.652,0.125 3.148,0.342c1.796,0.788 4.495,4.751 3.065,2.959c3.169,3.973 4.512,6.854 6.389,12.19c0.208,0.59 0.642,0.943 0.578,1.906c-5.459,-1.603 -10.919,-2.874 -16.598,-2.869l-0.028,0l-0.026,0c-5.679,-0.005 -12.163,1.266 -17.622,2.869c-0.064,-0.963 0.37,-1.316 0.578,-1.906c1.877,-5.336 3.22,-8.217 6.389,-12.19c-1.43,1.792 1.269,-2.171 3.065,-2.959c0.572,-0.251 2.522,-0.342 4.611,-0.349Z" style="fill:#404040;"/></svg>