<?xml version="1.0" encoding="UTF-8" standalone="no"?><!DOCTYPE svg PUBLIC "-//W3C//DTD SVG 1.1//EN" "http://www.w3.org/Graphics/SVG/1.1/DTD/svg11.dtd"><svg width="60px" height="63px" version="1.1" xmlns="http://www.w3.org/2000/svg" xmlns:xlink="http://www.w3.org/1999/xlink" xml:space="preserve" xmlns:serif="http://www.serif.com/" style="fill-rule:evenodd;clip-rule:evenodd;stroke-linejoin:round;stroke-miterlimit:1.41421;"><path d="M30.772,61.797l-0.369,0c-4.038,-1.516 -8.491,-3.62 -12.231,-6.437c-2.656,3.087 -7.292,7.65 -10.956,6.892c0,0 -3.718,-2.742 -2.685,-19.146c-1.728,-1.648 -3.102,-3.617 -3.932,-5.939c0,0 -1.348,-2.575 0,-5.121c2.433,-5.669 7.027,-9.05 12.523,-11.076c5.428,-2.002 11.861,-3.034 17.287,-3.08l0,0l0.164,0l0,0c5.427,0.04 10.862,1.073 16.305,3.08c5.496,2.026 10.09,5.407 12.523,11.076c1.348,2.546 0,5.121 0,5.121c-0.302,0.843 -0.675,1.64 -1.153,2.412l-5.836,-0.854l-2.735,-5.545c-0.833,-1.607 -1.975,-2.446 -3.492,-2.857c-0.387,-0.105 -0.59,-0.156 -1.26,-0.191l-0.243,0.014c-0.548,-1.029 -1.658,-1.687 -3.062,-2.241c-3.601,-1.419 -7.272,-2.238 -11.107,-2.272l0,-0.013l-0.002,0l0,0.013c-3.835,0.034 -8.53,0.853 -12.131,2.272c-2.444,0.964 -3.999,2.246 -3.412,5.31c0.347,1.806 -0.033,3.045 -2.278,2.72c-1.312,-0.188 -2.362,0.507 -2.537,2.102c-0.182,1.66 0.509,2.871 2.072,2.887c1.669,0.016 1.91,1.249 2.437,2.342c2.656,5.503 6.524,9.653 11.971,12.132c0.975,0.444 2.938,0.679 3.878,0.696l0.002,0l1.343,-0.178l-0.604,3.515c-0.114,0.744 -0.072,1.452 0.145,2.108l-0.625,0.258Z" style="fill:#404040;"/><path d="M27.506,0.001l0,-0.001l6.451,0l0,0.008c1.469,0.027 2.652,0.125 3.148,0.342c1.796,0.788 4.495,4.751 3.065,2.959c3.169,3.973 4.512,6.854 6.389,12.19c0.208,0.59 0.642,0.943 0.578,1.906c-5.459,-1.603 -10.919,-2.874 -16.598,-2.869l-0.028,0l-0.026,0c-5.679,-0.005 -12.163,1.266 -17.622,2.869c-0.064,-0.963 0.37,-1.316 0.578,-1.906c1.877,-5.336 3.22,-8.217 6.389,-12.19c-1.43,1.792 1.269,-2.171 3.065,-2.959c0.572,-0.251 2.522,-0.342 4.611,-0.349Z" style="fill:#404040;fill-rule:nonzero;"/><path d="M43.148,34.884l-3.595,7.29l-8.044,1.172c-1.443,0.21 -2.021,1.988 -0.975,3.007l5.82,5.671l-1.377,8.011c-0.247,1.448 1.278,2.533 2.555,1.856l7.197,-3.783l7.196,3.783c1.277,0.671 2.802,-0.408 2.555,-1.856l-1.377,-8.011l5.82,-5.671c1.046,-1.019 0.468,-2.797 -0.975,-3.007l-8.044,-1.172l-3.595,-7.29c-0.644,-1.3 -2.511,-1.316 -3.161,0Z" style="fill:#404040;fill-rule:nonzero;"/></svg>