<?xml version="1.0" encoding="UTF-8" standalone="no"?><!DOCTYPE svg PUBLIC "-//W3C//DTD SVG 1.1//EN" "http://www.w3.org/Graphics/SVG/1.1/DTD/svg11.dtd"><svg width="65px" height="64px" version="1.1" xmlns="http://www.w3.org/2000/svg" xmlns:xlink="http://www.w3.org/1999/xlink" xml:space="preserve" xmlns:serif="http://www.serif.com/" style="fill-rule:evenodd;clip-rule:evenodd;stroke-linejoin:round;stroke-miterlimit:1.41421;"><g transform="matrix(0.197229,0,0,0.197229,50.8143,17.1644)"><path d="M0,149.694c11.633,11.873 24.484,21.792 38.72,32.39c-14.975,0 -28.443,-0.761 -41.781,0.227c-11.955,0.885 -21.501,-1.851 -28.411,-11.912c-2.088,-3.04 -4.454,-2.701 -7.649,-1.626c-37.525,12.63 -75.866,16.841 -115.151,10.671c-2.447,-0.384 -4.935,-1.05 -6.668,1.689c-0.697,1.103 -2.043,0.946 -3.21,0.949c-19.328,0.05 -38.655,0.1 -57.983,0.13c-0.249,0 -0.499,-0.266 -1.066,-0.589c8.185,-5.818 16.749,-10.852 24.393,-17.704c-7.996,-5.182 -15.241,-10.728 -21.238,-17.7c-30.684,-35.669 -29.272,-85.863 3.514,-121.856c20.102,-22.069 45.643,-35.183 73.652,-44.079c9.518,-3.023 19.19,-5.52 29.064,-7.062c3.291,-0.515 4.86,-1.729 4.008,-5.196c-0.768,-3.124 0.578,-3.946 3.655,-3.848c9.985,0.319 19.98,0.339 29.971,0.518c0.957,0.017 2.718,0.261 2.744,0.532c0.656,6.718 5.885,3.885 9.104,4.062c26.941,1.477 52.915,6.572 76.068,21.189c27.862,17.589 42.794,42.826 42.115,76.167c-0.445,21.895 -9.725,40.492 -23.696,56.946c-8.58,10.105 -18.738,18.411 -30.155,26.102" style="fill:#ee3e33;fill-rule:nonzero;"/></g><g transform="matrix(0.197229,0,0,0.197229,49.6004,16.4724)"><path d="M0,152.959c8.965,10.223 19.73,18.498 31.26,28.164l-26.097,0c-17.853,0 -17.858,0.004 -30.181,-13.14c-9.461,-10.09 -17.779,-21.072 -25.826,-32.311c-2.949,-4.118 -3.497,-7.009 0.933,-9.955c0.595,-1.947 2.448,-2.976 3.372,-4.663c-2.935,-2.75 -6.599,-2.512 -10.094,-2.243c-4.201,0.324 -6.723,-1.252 -8.777,-4.972c-6.784,-12.289 -12.403,-25.067 -17.109,-38.271c-0.664,-1.862 -0.999,-3.857 -2.551,-6.251c-6.805,19.925 -15.344,38.511 -25.927,56.152c1.737,1.095 2.925,0.114 4.088,-0.278c17.461,-5.887 35.402,-7.648 53.713,-6.44c1.898,0.126 3.538,0.792 5.176,1.622c0.905,2.944 -1.113,3.609 -3.255,4.177c-9.149,7.534 -17.593,15.746 -24.284,25.601c-0.982,1.447 -1.738,2.568 -3.829,2.41c-22.021,-1.667 -41.971,4.994 -60.939,15.417c-2.61,1.434 -5.028,3.215 -7.536,4.835c-1.199,2.115 -3.007,3.346 -5.405,3.717c-2.677,3.975 -6.422,4.808 -11.073,4.697c-12.566,-0.302 -25.144,-0.104 -37.792,-0.104c-0.192,-1.45 1.246,-1.706 2.071,-2.298c21.112,-15.123 39.424,-33.056 54.709,-54.083c0.574,-0.79 1.163,-5.188 3.608,-1.067c1.573,0.774 1.905,2.38 2.552,3.777c0.849,1.951 1.735,3.885 2.899,5.675c0.7,1.017 1.264,2.134 2.213,2.963c1.246,0.887 2.34,0.673 3.317,-0.436c0.279,-0.35 0.58,-0.674 0.882,-1.001c3.898,-3.002 2.377,-5.737 -0.411,-8.403c-0.898,-1.549 -2.134,-2.858 -3.124,-4.346c-0.207,-0.405 -0.36,-0.831 -0.48,-1.269c-0.276,-1.331 -0.64,-2.638 -1.108,-3.917c-1.168,-1.935 -0.027,-4.149 -0.757,-6.138c13.202,-22.5 23.282,-46.268 29.329,-71.703c4.869,-20.477 7.674,-41.195 7.315,-62.263c-0.063,-3.691 0.822,-4.993 4.662,-4.74c6.632,0.438 13.296,0.437 19.947,0.501c2.634,0.025 3.907,0.832 3.672,3.755c-0.293,3.642 0.108,7.354 -0.344,10.966c-0.418,3.343 0.801,3.687 3.742,3.623c14.517,-0.317 28.94,0.512 42.92,4.939c17.161,5.435 23.75,20.6 15.936,36.783c-8.045,16.66 -22.251,26.501 -38.294,34.208c-7.451,3.58 -7.508,3.474 -4.393,11.206c0.807,2.004 1.418,4.138 2.54,5.952c2.229,3.605 2.987,7.164 0.792,11.016c-0.118,0.171 -0.235,0.342 -0.35,0.517c-1.136,0.955 -2.483,1.531 -3.832,2.114c-0.999,0.372 -2.143,0.39 -2.909,1.26c-0.494,0.865 -0.139,1.478 0.583,1.978c0.876,0.529 1.83,0.84 2.819,1.071c1.638,0.377 3.005,-0.068 4.114,-1.316c0.461,-0.487 0.967,-0.922 1.538,-1.281c1.477,-0.667 2.974,-1.444 4.114,0.526c1.874,0.992 2.695,2.833 3.721,4.534c9.969,16.526 21.349,31.972 35.045,45.638c1.728,0.336 2.757,1.37 3.095,3.095" style="fill:#fefefe;fill-rule:nonzero;"/></g><g transform="matrix(0.197229,0,0,0.197229,3.69427,27.0252)"><path d="M0,37.975c0.588,-28.242 12.41,-50.27 31.961,-68.481c22.783,-21.221 50.49,-32.86 80.268,-40.212c5.319,-1.314 10.74,-2.227 16.125,-3.264c1.3,-0.25 3.039,-1.368 3.309,1.309c0.206,2.036 -0.504,2.91 -2.622,3.286c-10.808,1.921 -21.501,4.369 -31.951,7.766c-26.006,8.455 -49.604,20.874 -68.36,41.358c-31.263,34.141 -30.452,83.893 1.978,115.541c4.666,4.553 9.961,8.289 15.476,11.749c0.992,0.622 3.667,0.706 2.359,2.812c-1.037,1.669 -2.539,3.486 -5.321,1.831c-5.603,-3.334 -10.935,-7.021 -15.698,-11.45c-18.344,-17.055 -26.516,-38.57 -27.524,-62.245" style="fill:#fefefe;fill-rule:nonzero;"/></g><g transform="matrix(0.197229,0,0,0.197229,49.4831,12.4755)"><path d="M0,168.116c21.43,-13.154 38.441,-30.299 47.284,-54.271c12.784,-34.656 -1.348,-72.418 -34.4,-92.768c-19.129,-11.778 -40.298,-17.069 -62.44,-19.01c-5.302,-0.464 -10.629,-0.659 -15.949,-0.876c-1.664,-0.068 -2.878,-0.149 -2.834,-2.36c0.039,-1.914 0.671,-2.68 2.62,-2.628c34.782,0.931 68.133,6.799 95.39,30.616c31.099,27.175 36.509,70.437 13.891,105.944c-10.12,15.885 -23.779,28.16 -39.486,38.299c-0.671,0.433 -1.508,0.608 -2.268,0.903c-1.685,-0.774 -3.386,-1.542 -1.808,-3.849" style="fill:#fefefe;fill-rule:nonzero;"/></g><g transform="matrix(0.197229,0,0,0.197229,53.2882,34.6119)"><path d="M0,-6.616c-4.526,1.746 -7.87,2.787 -6.796,9.525c2.031,12.74 -8.119,26.917 -20.429,31.014c-3.452,1.149 -6.945,1.745 -9.822,-1.108c-2.898,-2.874 -2.239,-6.526 -1.151,-9.862c2.699,-8.279 8.692,-14.014 15.443,-19.076c1.197,-0.898 2.337,-1.935 3.661,-2.588c3.348,-1.649 4.191,-3.156 2.014,-7.013c-5.612,-9.938 2.313,-25.389 13.682,-27.824c2.548,-0.546 4.525,-0.142 4.779,2.659c0.213,2.356 0.624,5.163 -2.79,6.071c-1.242,0.331 -2.117,0.762 -2.253,-1.218c-0.27,-3.926 -2.508,-2.177 -4.056,-1.067c-6.793,4.869 -7.74,14.348 -2.26,20.543c0.93,1.051 1.57,1.443 2.883,0.704c3.728,-2.099 7.096,-3.729 7.917,-9.115c1.538,-10.086 7.159,-18.143 15.751,-23.878c1.995,-1.332 4.131,-3.435 6.698,-1.244c2.315,1.976 0.867,4.357 0.038,6.437c-3.02,7.569 -7.759,14.053 -14.01,19.14c-3.562,2.899 -3.707,5.781 -2.469,9.552c1.567,4.772 4.102,8.67 8.751,10.985c1.563,0.777 4.403,1.022 2.254,4.023c-1.577,2.202 -2.736,4.556 -6.245,2.327c-6.011,-3.82 -9.387,-9.247 -10.998,-15.986c-0.225,-0.941 -0.377,-1.9 -0.592,-3.001" style="fill:#fefdfd;fill-rule:nonzero;"/></g><g transform="matrix(0.197229,0,0,0.197229,23.3772,29.5965)"><path d="M0,54.039l0.061,1.144c0.886,1.32 1.831,2.603 2.519,4.047c4.591,4.643 4.591,4.643 0.441,10.035l0.088,-0.096c-1.286,1.268 -2.66,1.879 -4.291,0.576c-0.941,-0.993 -1.745,-2.093 -2.481,-3.244c-0.978,-1.759 -1.897,-3.548 -2.711,-5.391c-0.661,-1.665 -1.137,-3.379 -1.336,-5.164c-1.032,-4.493 -2.063,-8.987 -3.227,-14.059c-3.441,3.806 -6.578,7.34 -9.792,10.802c-1.358,1.464 -2.834,3.062 -5.111,2.5c-2.548,-0.629 -2.459,-3.093 -2.571,-4.919c-0.649,-10.631 3.076,-19.879 9.593,-28.068c1.078,-1.354 2.84,-2.736 4.812,-1.738c2.054,1.039 1.49,3.167 1.22,4.926c-0.958,6.226 -4.105,11.183 -9.091,14.97c-1.337,1.015 -2.741,1.823 -2.795,3.817c-0.054,1.997 -0.7,4.406 1.347,5.466c2.098,1.085 3.067,-1.347 4.344,-2.511c5.882,-5.361 9.097,-11.541 9.352,-19.987c0.316,-10.469 3.23,-20.675 7.697,-30.292c1.832,-3.944 4.043,-7.659 6.871,-10.972c1.057,-1.237 2.116,-2.89 4.081,-2.236c2.135,0.71 2.13,2.741 2.24,4.584c0.241,4.054 -0.768,7.938 -1.707,11.814c-2.206,9.114 -5.305,18.012 -10.521,25.755c-4.452,6.609 -4.878,13.141 -2.817,20.333c1.134,1.336 1.697,2.935 2.121,4.597c0.641,1.06 0.825,2.35 1.664,3.311" style="fill:#fefdfd;fill-rule:nonzero;"/></g><g transform="matrix(0.197229,0,0,0.197229,20.8262,50.3764)"><path d="M0,2.72c19.12,3.714 38.35,3.515 57.626,1.595c18.428,-1.836 36.515,-5.307 53.924,-11.76c2.348,-0.87 3.716,-0.103 4.41,1.632c1.078,2.697 -1.861,2.161 -2.899,2.547c-22.967,8.522 -46.844,12.258 -71.221,13.539c-14.52,0.762 -28.9,-0.097 -43.218,-2.425c-1.668,-0.271 -3.766,0.217 -4.627,-2.007c1.369,-2.258 3.042,-3.93 6.005,-3.121" style="fill:#fefdfd;fill-rule:nonzero;"/></g><g transform="matrix(0.197229,0,0,0.197229,7.76241,30.807)"><path d="M0,44.75c-2.227,-0.333 -3.846,3.74 -5.507,1.493c-2.097,-2.838 1.763,-3.688 3.241,-5.035c1.928,-1.758 2.391,-3.658 2.568,-6.125c1.153,-16.07 6.131,-30.9 14.913,-44.43c0.453,-0.697 0.888,-1.425 1.45,-2.027c1.018,-1.09 2.193,-2.554 3.71,-2.096c1.74,0.524 1.252,2.498 1.261,3.893c0.103,15.791 -4.811,30.217 -13.343,43.185c-4.226,6.422 -3.701,12.574 -1.798,18.899c0.875,2.91 -0.072,4.533 -1.927,5.179c-2.848,0.992 -2.945,-1.943 -3.299,-3.685c-0.621,-3.054 -0.869,-6.185 -1.269,-9.251" style="fill:#fefdfc;fill-rule:nonzero;"/></g><g transform="matrix(0.197229,0,0,0.197229,16.1181,36.9276)"><path d="M0,-8.035c0.834,-2.321 2.616,-3.555 4.894,-2.919c2.225,0.621 1.86,2.93 1.754,4.697c-0.473,7.899 -2.268,15.412 -6.76,22.098c-1.318,1.961 -2.829,3.696 -4.996,4.731c-2.267,1.083 -4.516,2.175 -7.05,0.571c-2.98,-1.887 -0.375,-3.907 -0.024,-5.674c2.716,-13.676 5.792,-27.282 8.425,-40.974c0.701,-3.648 2.182,-5.277 6.427,-4.793c-1.391,6.208 -2.751,12.427 -4.196,18.626c-0.395,1.698 -1.084,3.354 1.621,3.566c-2.256,5.654 -3.998,11.463 -5.218,17.427c-0.326,1.592 -1.108,3.118 -0.63,5.7c4.383,-7.599 7.495,-14.685 5.753,-23.056" style="fill:#fefdfc;fill-rule:nonzero;"/></g><g transform="matrix(0.197229,0,0,0.197229,40.5615,29.7756)"><path d="M0,32.145c-0.455,0.431 -0.91,0.862 -1.365,1.293c-1.186,1.447 -2.997,1.33 -4.564,1.823c-1.075,-0.332 -2.15,-0.664 -3.224,-0.996c-0.651,-0.852 -0.851,-1.768 -0.397,-2.776c0.867,-1.418 2.576,-0.976 3.758,-1.694c1.321,-0.74 2.721,-1.368 3.761,-2.532l-0.078,0.109c2.862,-0.964 3.115,-3.639 3.84,-5.96c1.088,-3.484 2.301,-6.952 3.052,-10.514c1.308,-6.2 6.949,-8.669 10.678,-12.749c1.156,-1.265 3.387,-1.022 3.877,1.23c0.84,3.859 2.945,3.19 5.409,1.833c1.061,-0.389 1.296,0.14 1.181,1.06c-4.182,1.924 -5.444,5.437 -6.043,9.77c-0.846,6.12 -3.092,11.789 -7.491,16.406c-2.069,2.171 -4.356,3.523 -7.465,2.862c-1.842,-0.893 -3.539,-0.937 -4.929,0.835" style="fill:#fefcfb;fill-rule:nonzero;"/></g><g transform="matrix(0.197229,0,0,0.197229,11.1613,36.1425)"><path d="M0,23.966c-0.974,2.281 -2.245,5.335 -4.84,4.577c-2.479,-0.725 -2.224,-4.1 -2.088,-6.578c0.535,-9.733 4.516,-17.88 11.56,-24.545c1.311,-1.24 2.997,-2.755 4.799,-1.599c2.173,1.396 -0.246,2.844 -0.622,4.232c-0.38,1.403 -1.858,2.75 1.271,2.646c1.936,-0.064 0.985,1.772 0.739,2.661c-1.681,6.071 -3.222,12.171 -3.908,18.444c-0.255,2.336 -2.025,3.006 -3.704,3.461c-2.551,0.692 -1.106,-3.225 -3.306,-3.206c-0.543,-3.552 2.085,-6.169 2.775,-9.373c0.573,-2.66 1.992,-5.136 2.096,-8.355c-5.383,5.007 -7.342,12.738 -4.772,17.635" style="fill:#fefcfb;fill-rule:nonzero;"/></g><g transform="matrix(0.197229,0,0,0.197229,45.6754,34.4926)"><path d="M0,-21.644c-0.394,-0.353 -0.787,-0.707 -1.181,-1.06c2.274,-2.245 4.613,-4.351 8.882,-3.78c-2.043,6.848 -4.038,13.584 -6.067,20.31c-0.67,2.222 -1.654,4.567 2.396,3.673c0.451,0.26 1.051,0.346 1.17,0.996c-2.57,2.507 -5.506,6.916 -8.779,5.103c-3.748,-2.076 -0.436,-6.539 0.374,-9.868c1.058,-4.35 2.466,-8.614 3.724,-12.915c0.268,-0.914 0.887,-1.9 -0.519,-2.459" style="fill:#fefbfa;fill-rule:nonzero;"/></g><g transform="matrix(0.197229,0,0,0.197229,46.701,29.6943)"><path d="M0,22.823c-0.39,-0.332 -0.78,-0.664 -1.17,-0.996c3.189,-2.152 4.814,-5.251 5.815,-8.902c1.4,-5.107 3.187,-10.108 4.619,-15.208c0.637,-2.267 2.241,-2.3 3.836,-1.957c2.27,0.49 0.776,2.169 0.512,3.122c-1.504,5.424 -3.25,10.781 -4.788,16.196c-0.518,1.823 -1.376,3.474 -0.71,5.711c0.788,2.652 -2.283,3.111 -3.832,4.316c-2.958,2.301 -2.346,-2.447 -4.282,-2.282" style="fill:#fefbfb;fill-rule:nonzero;"/></g><g transform="matrix(0.197229,0,0,0.197229,20.8262,51.1717)"><path d="M0,-1.312c-2.394,0.286 -3.829,2.416 -6.005,3.121c-0.457,-0.404 -0.914,-0.808 -1.371,-1.213c1.54,-1.62 3.266,-2.969 5.406,-3.717c0.657,0.603 1.313,1.206 1.97,1.809" style="fill:#f05947;fill-rule:nonzero;"/></g><g transform="matrix(0.197229,0,0,0.197229,22.968,38.2821)"><path d="M0,7.351c-1.173,-1.557 -1.624,-3.348 -1.711,-5.258c0.328,-0.698 0.655,-1.396 0.982,-2.093c0.575,2.081 1.15,4.162 1.725,6.243c-0.236,0.456 -0.334,1.036 -0.996,1.108" style="fill:#f37660;fill-rule:nonzero;"/></g><g transform="matrix(0.197229,0,0,0.197229,39.4876,40.4328)"><path d="M0,3.065c1.114,-1.262 2.228,-2.524 3.342,-3.786c1.229,-0.446 1.952,0.113 2.405,1.209c-1.259,1.485 -2.608,2.864 -4.384,3.744c-0.454,-0.389 -0.909,-0.778 -1.363,-1.167" style="fill:#f05442;fill-rule:nonzero;"/></g><g transform="matrix(0.197229,0,0,0.197229,27.9321,16.0251)"><path d="M0,-6.989c0.7,2.319 1.401,4.637 2.101,6.956c-0.374,0.018 -0.747,0.036 -1.121,0.055c-2.431,-1.855 -0.611,-4.871 -1.923,-7.031c0.315,-0.002 0.629,0.005 0.943,0.02" style="fill:#ee3e33;fill-rule:nonzero;"/></g><g transform="matrix(0.197229,0,0,0.197229,40.5615,35.1722)"><path d="M0,4.783c0.853,-4.936 2.933,-2.637 4.929,-0.835c-0.32,0.31 -0.641,0.62 -0.961,0.931c-1.303,-0.851 -2.648,0.057 -3.968,-0.096" style="fill:#f1624f;fill-rule:nonzero;"/></g><g transform="matrix(0.197229,0,0,0.197229,21.8565,41.7301)"><path d="M0,-5.574c1.053,1.595 1.813,3.292 1.816,5.25c-0.293,0.324 -0.578,0.301 -0.856,-0.022c-1.669,-0.848 -1.63,-2.558 -2.037,-4.042c0.359,-0.396 0.718,-0.791 1.077,-1.186" style="fill:#f2735d;fill-rule:nonzero;"/></g><g transform="matrix(0.197229,0,0,0.197229,49.4831,46.6402)"><path d="M0,-5.108c-0.803,1.943 1.367,2.49 1.808,3.849c-0.404,0.42 -0.809,0.84 -1.213,1.259c-1.331,-0.732 -2.363,-1.764 -3.095,-3.095c0.833,-0.671 1.667,-1.342 2.5,-2.013" style="fill:#ef4f3e;fill-rule:nonzero;"/></g><g transform="matrix(0.197229,0,0,0.197229,40.621,30.7959)"><path d="M0,49.349c-0.801,-0.403 -1.603,-0.806 -2.404,-1.209c-19.824,-2.991 -39.119,-0.441 -58.085,5.549c-1.426,0.451 -2.832,0.968 -4.266,1.39c-0.923,0.271 -1.998,0.996 -2.814,0.13c-1.139,-1.21 0.26,-2.096 0.788,-2.951c4.548,-7.361 8.743,-14.915 12.493,-22.71c5.192,-10.796 9.664,-21.885 13.407,-33.27c0.319,-0.971 0.168,-2.38 1.947,-3.004c3.859,11.471 7.938,22.816 13.265,33.651c0.073,0.149 0.095,0.323 0.17,0.469c2.66,5.173 4.657,10.861 8.165,15.375c3.878,4.989 10.689,1.187 15.822,3.33c1.156,0.482 2.95,0.016 3.442,1.381c0.349,0.968 -1.051,1.448 -1.93,1.869" style="fill:#ee3e33;fill-rule:nonzero;"/></g><g transform="matrix(0.197229,0,0,0.197229,33.4596,19.7511)"><path d="M0,37.137c2.843,-11.022 5.14,-21.374 6.863,-31.843c0.258,-1.567 0.496,-2.844 2.458,-3.153c8.598,-1.352 17.19,-2.141 25.57,0.982c7.541,2.811 9.069,9.712 3.152,15.206c-10.57,9.813 -23.064,15.969 -38.043,18.808" style="fill:#ee3e33;fill-rule:nonzero;"/></g><g transform="matrix(0.197229,0,0,0.197229,23.9731,41.1768)"><path d="M0,10.55c2.755,-3.558 2.259,-6.917 -0.617,-10.132c0.325,-0.392 0.659,-0.418 1.003,-0.024c5.293,4.732 5.229,6.411 -0.386,10.156" style="fill:#ef4c3c;fill-rule:nonzero;"/></g><g transform="matrix(0.197229,0,0,0.197229,22.0459,42.8751)"><path d="M0,-6.151c0.284,0.057 0.569,0.064 0.856,0.022c1.501,1.367 2.168,3.219 2.918,5.022c-0.292,0.408 -0.385,0.997 -1.006,1.107c-1.39,-1.84 -2.805,-3.668 -2.768,-6.151" style="fill:#f16350;fill-rule:nonzero;"/></g><g transform="matrix(0.197229,0,0,0.197229,39.5537,35.7367)"><path d="M0,-0.005c-1.266,0.386 -2.533,0.772 -3.799,1.158c-0.968,0.277 -1.428,0.007 -1.146,-1.064c1.119,-1.011 2.595,-0.742 3.9,-1.085c1.077,-0.439 1.238,0.089 1.045,0.991" style="fill:#ee3e33;fill-rule:nonzero;"/></g><g transform="matrix(0.197229,0,0,0.197229,23.1746,43.9006)"><path d="M0,-3.092c1.439,0.851 2.758,-0.173 4.136,-0.264c-1.024,3.62 -2.86,3.392 -5.136,1.083c0.211,-0.423 0.544,-0.696 1,-0.819" style="fill:#f26b58;fill-rule:nonzero;"/></g><g transform="matrix(0.197229,0,0,0.197229,39.3923,36.5633)"><path d="M0,0.846c1.192,-1.433 2.95,-1.447 4.563,-1.824c-0.644,2.802 -2.42,2.773 -4.563,1.824" style="fill:#f16351;fill-rule:nonzero;"/></g><g transform="matrix(0.197229,0,0,0.197229,39.5537,35.1126)"><path d="M0,3.159c-0.348,-0.33 -0.697,-0.66 -1.045,-0.991c1.17,-1.084 2.34,-2.168 4.124,-1.965c0.008,2.063 -1.575,2.469 -3.079,2.956" style="fill:#f2735e;fill-rule:nonzero;"/></g><g transform="matrix(0.197229,0,0,0.197229,38.5784,36.5337)"><path d="M0,-3.952c0.382,0.354 0.764,0.709 1.146,1.063c-0.082,0.963 -0.163,1.926 -0.244,2.889c-3.347,-0.622 -2.344,-2.237 -0.902,-3.952" style="fill:#ef4c3c;fill-rule:nonzero;"/></g><g transform="matrix(0.197229,0,0,0.197229,23.1746,42.8184)"><path d="M0,2.395c-0.333,0.273 -0.666,0.546 -1,0.819c-0.651,-0.975 -1.303,-1.951 -1.954,-2.926c0.335,-0.369 0.67,-0.738 1.005,-1.107c0.65,1.071 1.299,2.143 1.949,3.214" style="fill:#f05d4b;fill-rule:nonzero;"/></g><g transform="matrix(0.197229,0,0,0.197229,24.0492,40.4848)"><path d="M0,3.903c-0.335,0.008 -0.669,0.016 -1.003,0.023c-1.57,-0.848 -2.443,-2.11 -2.343,-3.949c1.79,0.733 2.549,2.346 3.346,3.926" style="fill:#ee3e33;fill-rule:nonzero;"/></g><g transform="matrix(0.197229,0,0,0.197229,22.968,40.036)"><path d="M0,-1.542c0.332,-0.369 0.664,-0.738 0.996,-1.108c0.482,1.218 1.326,2.331 1.079,3.758c-1.732,-0.069 -1.835,-1.413 -2.075,-2.65" style="fill:#ee3e33;fill-rule:nonzero;"/></g><g transform="matrix(0.197229,0,0,0.197229,50.9252,40.0219)"><path d="M0,-21.697c0.169,9.657 -7.722,21.707 -16.1,25.282c-1.918,0.819 -3.858,1.35 -5.615,-0.102c-1.833,-1.514 -2.225,-3.622 -1.682,-5.878c1.241,-5.16 4.245,-9.301 7.775,-13.097c2.944,-3.166 6.266,-5.916 9.81,-8.385c1.306,-0.91 2.646,-2.755 4.161,-2.101c1.804,0.779 1.343,3.151 1.651,4.281" style="fill:#ee3f33;fill-rule:nonzero;"/></g><g transform="matrix(0.197229,0,0,0.197229,54.381,27.3066)"><path d="M0,22.515c1.321,-9.144 5.048,-15.369 10.788,-20.476c0.985,-0.877 2.113,-2.039 3.458,-1.32c1.527,0.816 0.798,2.379 0.29,3.512c-3.143,7.017 -7.838,12.799 -14.536,18.284" style="fill:#ee4337;fill-rule:nonzero;"/></g><g transform="matrix(0.197229,0,0,0.197229,22.5224,27.7643)"><path d="M0,34.278c1.015,-11.109 3.254,-21.909 7.966,-32.071c0.482,-1.04 1.241,-2.207 2.672,-1.569c1.111,0.496 0.863,1.744 0.713,2.65c-1.818,10.998 -5.196,21.452 -11.351,30.99" style="fill:#ee4236;fill-rule:nonzero;"/></g><g transform="matrix(0.197229,0,0,0.197229,19.0077,34.1241)"><path d="M0,13.872c-1.019,-0.011 -1.278,-0.783 -1.023,-1.63c1.137,-3.782 2.436,-7.515 5.019,-10.602c0.763,-0.912 1.841,-1.64 2.809,-0.195c1.356,2.021 -4.175,12.234 -6.805,12.427" style="fill:#ef493b;fill-rule:nonzero;"/></g><g transform="matrix(0.197229,0,0,0.197229,9.01521,29.8286)"><path d="M0,34.847c0.312,-11.687 3.495,-22.547 8.435,-32.933c0.423,-0.89 0.932,-1.914 2.107,-1.851c1.038,0.057 1.258,1 1.168,1.84c-1.272,11.905 -4.277,23.206 -11.71,32.944" style="fill:#ee4135;fill-rule:nonzero;"/></g><g transform="matrix(0.197229,0,0,0.197229,16.1181,40.3953)"><path d="M0,-25.617c1.605,0.899 2.224,2.198 2.063,4.085c-0.589,6.891 -2.682,13.266 -6.28,19.156c-0.708,1.16 -1.648,2.447 -3.127,1.752c-1.456,-0.684 -0.363,-2.024 -0.131,-3.055c1.197,-5.324 2.555,-10.617 3.601,-15.97c0.519,-2.657 2.43,-4.167 3.965,-6.037c0.004,-0.002 -0.091,0.069 -0.091,0.069" style="fill:#ee4136;fill-rule:nonzero;"/></g><g transform="matrix(0.197229,0,0,0.197229,41.7555,31.7628)"><path d="M0,11.917c0.706,-4.984 2.365,-9.808 4.977,-14.279c0.604,-1.034 1.177,-2.948 2.769,-2.162c1.488,0.735 3.383,1.894 2.956,4.078c-0.984,5.035 -2.146,10.041 -4.938,14.469c-0.999,1.584 -2.172,3.204 -4.323,2.411c-2.058,-0.759 -1.242,-2.79 -1.441,-4.517" style="fill:#ee4236;fill-rule:nonzero;"/></g></svg>