<?xml version="1.0" encoding="UTF-8" standalone="no"?><!DOCTYPE svg PUBLIC "-//W3C//DTD SVG 1.1//EN" "http://www.w3.org/Graphics/SVG/1.1/DTD/svg11.dtd"><svg width="60px" height="52px" version="1.1" xmlns="http://www.w3.org/2000/svg" xmlns:xlink="http://www.w3.org/1999/xlink" xml:space="preserve" xmlns:serif="http://www.serif.com/" style="fill-rule:evenodd;clip-rule:evenodd;stroke-linejoin:round;stroke-miterlimit:1.41421;"><path d="M27.137,6.097c16.187,-2.664 30.82,4.242 32.659,15.412c1.839,11.17 -9.81,22.402 -25.996,25.066c-16.187,2.664 -30.82,-4.242 -32.659,-15.412c-1.839,-11.17 9.81,-22.402 25.996,-25.066Z" style="fill:#ee3e33;"/><path d="M10.309,39.959c-2.128,2.562 -4.918,4.913 -8.16,7.12l10.56,0.32l3.36,-2.64l-5.76,-4.8Z" style="fill:#ee3e33;"/><path d="M38.149,43.959l2.8,3.12l11.28,0.16c-3.052,-2.424 -5.986,-4.792 -7.28,-6.48l-6.8,3.2Z" style="fill:#ee3e33;"/><path d="M51.174,27.673c-0.893,0.344 -1.552,0.55 -1.341,1.878c0.401,2.513 -1.601,5.309 -4.029,6.117c-0.681,0.227 -1.37,0.344 -1.937,-0.218c-0.572,-0.567 -0.442,-1.287 -0.227,-1.945c0.532,-1.633 1.714,-2.764 3.046,-3.763c0.236,-0.177 0.461,-0.381 0.722,-0.51c0.66,-0.325 0.826,-0.623 0.397,-1.383c-1.107,-1.96 0.456,-5.008 2.699,-5.488c0.502,-0.108 0.892,-0.028 0.942,0.525c0.042,0.464 0.123,1.018 -0.55,1.197c-0.245,0.065 -0.418,0.15 -0.445,-0.24c-0.053,-0.775 -0.494,-0.43 -0.799,-0.211c-1.34,0.961 -1.527,2.83 -0.446,4.052c0.183,0.207 0.309,0.284 0.568,0.139c0.736,-0.414 1.4,-0.736 1.562,-1.798c0.303,-1.989 1.412,-3.578 3.106,-4.709c0.394,-0.263 0.815,-0.678 1.321,-0.246c0.457,0.39 0.171,0.86 0.008,1.27c-0.596,1.493 -1.53,2.771 -2.763,3.775c-0.703,0.572 -0.731,1.14 -0.487,1.884c0.309,0.941 0.809,1.71 1.726,2.166c0.308,0.153 0.868,0.202 0.444,0.794c-0.311,0.434 -0.539,0.898 -1.231,0.459c-1.186,-0.754 -1.852,-1.824 -2.17,-3.153c-0.044,-0.186 -0.074,-0.375 -0.116,-0.592" style="fill:#fefdfd;fill-rule:nonzero;"/><path d="M44.356,28.365l0,0c0.629,-0.424 0.949,-1.036 1.147,-1.756c0.276,-1.007 0.628,-1.993 0.911,-2.999c0.125,-0.447 0.442,-0.454 0.756,-0.386c0.448,0.097 0.153,0.428 0.101,0.616c-0.296,1.069 -0.641,2.126 -0.944,3.194c-0.102,0.36 -0.271,0.685 -0.14,1.126c0.155,0.523 -0.45,0.614 -0.756,0.852c-0.583,0.453 -0.463,-0.483 -0.844,-0.45l-0.001,-0.001l0,0.001c-0.506,0.494 -1.085,1.364 -1.731,1.006c-0.739,-0.409 -0.086,-1.29 0.074,-1.946c0.208,-0.858 0.486,-1.699 0.734,-2.547c0.053,-0.181 0.175,-0.375 -0.102,-0.485l0,0l0,0c-0.825,0.379 -1.074,1.072 -1.192,1.927c-0.167,1.207 -0.61,2.325 -1.478,3.235c-0.408,0.428 -0.859,0.695 -1.472,0.565c-0.363,-0.176 -0.698,-0.185 -0.972,0.164c-0.09,0.085 -0.179,0.17 -0.269,0.255c-0.234,0.286 -0.591,0.263 -0.9,0.36c-0.212,-0.065 -0.424,-0.131 -0.636,-0.196c-0.129,-0.168 -0.168,-0.349 -0.078,-0.548c0.171,-0.28 0.508,-0.192 0.741,-0.334c0.26,-0.146 0.536,-0.27 0.741,-0.499l-0.015,0.021c0.565,-0.19 0.614,-0.718 0.757,-1.175c0.215,-0.688 0.294,-1.487 0.398,-2.197c0.208,-1.427 1.528,-1.779 2.31,-2.392c0.266,-0.208 0.668,-0.201 0.765,0.243c0.166,0.761 0.581,0.629 1.067,0.362l0,-0.001c0.449,-0.442 0.91,-0.858 1.752,-0.745c-0.403,1.351 -0.797,2.679 -1.197,4.006c-0.132,0.438 -0.326,0.901 0.473,0.724l0,0Zm-3.22,-3.085c0.336,0.088 0.38,1.024 0.099,2.088c-0.117,0.44 -0.271,0.834 -0.435,1.138c-0.232,0.43 -0.485,0.68 -0.682,0.628c-0.335,-0.088 -0.379,-1.024 -0.098,-2.087c0.281,-1.064 0.781,-1.856 1.116,-1.767Z" style="fill:#fefcfb;fill-rule:nonzero;"/><path d="M23.255,7.469l0.195,-2.664l7.018,-0.08l0,1.921l-7.213,0.823Z" style="fill:#ee3e33;"/><path d="M24.57,7.492c0.011,-0.648 0.009,-1.303 -0.006,-1.966l5.279,0c0,0 0.001,0.381 -0.025,1.074c1.458,-0.154 2.926,-0.232 4.396,-0.234c10.269,0.032 21.596,4.039 24.408,13.66c2.301,7.871 -3.514,16.477 -11.746,21.147c-0.698,0.396 -1.411,0.77 -2.137,1.122c1.618,1.583 3.421,3.046 5.414,4.266l-8.327,-0.244c0,0 -0.869,-0.637 -2.226,-1.964c-8.065,2.597 -17.014,2.698 -24.551,-0.079c-0.084,0.044 -0.168,0.088 -0.251,0.134c-0.875,0.766 -1.8,1.491 -2.78,2.167l-7.891,-0.014c0.169,-0.02 2.613,-1.661 5.756,-4.848c-4.271,-2.82 -7.622,-7.173 -7.84,-12.374c-0.402,-9.6 9.108,-17.888 20.082,-21.191c0.808,-0.243 1.624,-0.462 2.445,-0.656Z" style="fill:#fff;"/><path d="M38.861,43.609c-1.606,-1.661 -3.687,-4.109 -5.786,-7.407c-1.381,1.288 -2.844,2.769 -4.429,4.534c0,0 -6.919,0.565 -12.309,2.923c1.878,0.602 3.811,1.017 5.7,1.272c5.564,0.752 11.429,0.289 16.824,-1.322Z" style="fill:#ee3e33;"/><path d="M44.067,41.619c4.108,-1.948 7.724,-4.657 10.42,-8.092c3.848,-4.903 5.082,-11.858 1.122,-17.327c-4.804,-6.635 -13.872,-8.877 -21.742,-8.832c-1.362,0.013 -2.731,0.092 -4.097,0.237c-0.019,0.34 -0.043,0.718 -0.074,1.13c4.058,-0.11 14.417,0.283 13.059,7.265c-1.752,4.013 -4.875,6.842 -9.162,8.667c0,0 3.307,9.56 10.474,16.952Z" style="fill:#ee3e33;"/><path d="M18.274,30.499c3.32,-5.822 5.947,-13.186 6.27,-22.008c-7.141,1.681 -13.739,5.26 -17.992,10.821c-3.548,4.639 -4.776,11.092 -1.493,16.323c1.394,2.223 3.305,3.994 5.5,5.379c2.195,-2.31 4.661,-5.33 6.9,-9.041l0.815,-1.474Z" style="fill:#ee3e33;"/><path d="M32.193,34.766c-1.839,-3.103 -3.643,-6.868 -5.104,-11.335c-1.184,4.105 -2.876,8.445 -5.297,12.473c3.753,-1.175 7.214,-1.536 10.401,-1.138Z" style="fill:#ee3e33;"/><path d="M19.572,35.369l-0.01,0.014l0.016,-0.019l-0.006,0.005Z" style="fill:#fff;"/><path d="M28.097,21.509l1.055,-6.933c0,0 9.52,-1.04 6.08,2.96c-1.63,1.966 -4.07,3.238 -7.135,3.973Z" style="fill:#ee3e33;"/><path d="M17.459,31.973l-0.418,-1.989c-0.622,0.75 -1.189,1.447 -1.769,2.13c-0.246,0.289 -0.512,0.604 -0.924,0.493c-0.46,-0.124 -0.444,-0.61 -0.464,-0.97c-0.118,-2.097 0.555,-3.921 1.733,-5.536c0.195,-0.267 0.513,-0.539 0.869,-0.343c0.371,0.205 0.269,0.625 0.221,0.972c-0.174,1.228 -0.742,2.206 -1.643,2.953c-0.241,0.2 -0.495,0.359 -0.505,0.752c-0.01,0.394 -0.126,0.869 0.244,1.078c0.379,0.214 0.554,-0.265 0.784,-0.495c1.063,-1.057 1.644,-2.276 1.69,-3.942c0.057,-2.065 0.583,-4.078 1.39,-5.974c0.331,-0.778 0.731,-1.511 1.242,-2.164c0.191,-0.244 0.382,-0.57 0.737,-0.441c0.386,0.14 0.385,0.54 0.405,0.904c0.043,0.799 -0.139,1.565 -0.309,2.33c-0.398,1.797 -0.958,3.552 -1.9,5.079c-0.741,1.201 -0.865,2.388 -0.568,3.689l-0.815,1.474Z" style="fill:#fefdfd;"/><path d="M19.572,35.369l0.006,-0.005l-0.016,0.019l0.01,-0.014Z" style="fill:#fefdfd;"/><path d="M4.713,31.759c-0.402,-0.066 -0.695,0.738 -0.995,0.294c-0.379,-0.559 0.319,-0.727 0.586,-0.993c0.348,-0.346 0.432,-0.721 0.464,-1.208c0.208,-3.169 1.107,-6.094 2.694,-8.763c0.082,-0.137 0.16,-0.281 0.262,-0.399c0.184,-0.215 0.396,-0.504 0.67,-0.414c0.315,0.104 0.226,0.493 0.228,0.768c0.019,3.114 -0.869,5.96 -2.411,8.517c-0.763,1.267 -0.668,2.48 -0.324,3.728c0.158,0.574 -0.013,0.894 -0.349,1.021c-0.514,0.196 -0.532,-0.383 -0.596,-0.727c-0.112,-0.602 -0.157,-1.219 -0.229,-1.824" style="fill:#fefdfc;fill-rule:nonzero;"/><path d="M7.827,32.995c-0.176,0.45 -0.406,1.052 -0.875,0.903c-0.448,-0.143 -0.402,-0.809 -0.377,-1.298c0.097,-1.919 0.816,-3.526 2.088,-4.841c0.237,-0.244 0.542,-0.543 0.867,-0.315c0.393,0.275 -0.044,0.561 -0.112,0.835c-0.069,0.277 -0.336,0.542 0.23,0.522c0.349,-0.013 0.178,0.349 0.133,0.524c-0.303,1.198 -0.582,2.401 -0.706,3.638c-0.046,0.461 -0.366,0.593 -0.669,0.683c-0.461,0.136 -0.2,-0.636 -0.597,-0.633c-0.098,-0.7 0.376,-1.216 0.501,-1.848c0.104,-0.525 0.36,-1.013 0.379,-1.648c-0.973,0.988 -1.327,2.512 -0.862,3.478" style="fill:#fefcfb;fill-rule:nonzero;"/><path d="M12.377,27.475c0,0 0.467,-0.706 0.874,-0.582c0.402,0.122 0.336,0.578 0.317,0.926c-0.085,1.558 -0.41,3.04 -1.221,4.359c-0.238,0.387 -0.511,0.729 -0.903,0.933c-0.409,0.213 -0.816,0.429 -1.273,0.112c-0.539,-0.372 -0.068,-0.77 -0.005,-1.119c0.491,-2.697 1.047,-5.38 1.522,-8.081c0.127,-0.719 0.395,-1.041 1.161,-0.945c-0.251,1.224 -0.497,2.451 -0.758,3.673c-0.07,0.332 -0.193,0.656 0.281,0.703l-0.001,0.004l-0.004,0.011l0.001,0.006c-0.274,0.36 -0.609,0.656 -0.701,1.171c-0.189,1.056 -0.434,2.099 -0.65,3.15c-0.042,0.203 -0.24,0.467 0.023,0.602c0.267,0.137 0.437,-0.117 0.565,-0.345c0.65,-1.162 1.028,-2.42 1.135,-3.779c0.029,-0.368 -0.08,-0.622 -0.363,-0.799Zm0.006,-0.02l0.001,0c0,0 0,0 -0.001,0l-0.006,0.009l-0.006,0.007l0.003,0.002l0.001,0.008l-0.007,-0.006l0.002,-0.003l0.001,-0.001l-0.004,-0.002c0,-0.001 0.015,-0.013 0.016,-0.014Z" style="fill:#fefdfc;fill-rule:nonzero;"/></svg>