<?xml version="1.0" encoding="UTF-8" standalone="no"?><!DOCTYPE svg PUBLIC "-//W3C//DTD SVG 1.1//EN" "http://www.w3.org/Graphics/SVG/1.1/DTD/svg11.dtd"><svg width="60px" height="45px" version="1.1" xmlns="http://www.w3.org/2000/svg" xmlns:xlink="http://www.w3.org/1999/xlink" xml:space="preserve" xmlns:serif="http://www.serif.com/" style="fill-rule:evenodd;clip-rule:evenodd;stroke-linejoin:round;stroke-miterlimit:1.41421;"><path d="M58.365,14.671c0.451,-0.359 1.122,-0.024 1.122,0.543l0,23.661c0,3.066 -2.487,5.553 -5.553,5.553l-48.131,0c-3.066,0 -5.553,-2.487 -5.553,-5.553l0,-23.649c0,-0.579 0.659,-0.903 1.122,-0.544c2.592,2.013 6.028,4.57 17.829,13.143c2.441,1.782 6.56,5.531 10.668,5.508c4.13,0.034 8.33,-3.795 10.679,-5.508c11.801,-8.573 15.225,-11.141 17.817,-13.154Zm-28.496,14.948c2.684,0.046 6.548,-3.379 8.492,-4.79c15.353,-11.142 16.522,-12.114 20.062,-14.891c0.671,-0.52 1.064,-1.33 1.064,-2.186l0,-2.198c0,-3.066 -2.487,-5.554 -5.553,-5.554l-48.131,0c-3.066,0 -5.553,2.488 -5.553,5.554l0,2.198c0,0.856 0.393,1.654 1.064,2.186c3.541,2.766 4.709,3.749 20.062,14.891c1.944,1.411 5.808,4.836 8.493,4.79Z" style="fill:#404040;fill-rule:nonzero;"/></svg>