<?xml version="1.0" encoding="UTF-8" standalone="no"?><!DOCTYPE svg PUBLIC "-//W3C//DTD SVG 1.1//EN" "http://www.w3.org/Graphics/SVG/1.1/DTD/svg11.dtd"><svg width="61px" height="60px" version="1.1" xmlns="http://www.w3.org/2000/svg" xmlns:xlink="http://www.w3.org/1999/xlink" xml:space="preserve" xmlns:serif="http://www.serif.com/" style="fill-rule:evenodd;clip-rule:evenodd;stroke-linejoin:round;stroke-miterlimit:1.41421;"><path d="M47.999,25.425c6.914,-1.245 11.604,-3.688 11.604,-6.488l0,-4.92c-4.091,2.892 -11.12,4.448 -18.518,4.817c3.399,1.647 5.9,3.86 6.914,6.591m-25.271,-6.488c-12.215,0 -22.125,4.126 -22.125,9.219c0,5.093 9.91,9.219 22.125,9.219c12.215,0 22.125,-4.126 22.125,-9.219c0,-5.093 -9.91,-9.219 -22.125,-9.219m25.875,17.447c7,-1.279 11,-3.653 11,-6.384l0,-4.921c-2.673,1.89 -7,3.181 -11,3.976l0,7.329Zm-48,-1.268l0,5.946c0,4.068 9.785,7.375 22,7.375c12.215,0 22,-3.307 22,-7.375l0,-5.946c-5,3.918 -13.346,5.946 -22,5.946c-8.654,0 -17.241,-2.028 -22,-5.946m36.875,-19.866c12.215,0 22.125,-3.307 22.125,-7.375c0,-4.068 -9.91,-7.375 -22.125,-7.375c-12.215,0 -22.125,3.307 -22.125,7.375c0,4.068 9.91,7.375 22.125,7.375m-36.875,31.954l0,4.921c0,4.068 9.785,7.375 22,7.375c12.215,0 22,-3.307 22,-7.375l0,-4.921c-5,3.354 -13.334,4.921 -22,4.921c-8.666,0 -17.241,-1.567 -22,-4.921" style="fill:#404040;fill-rule:nonzero;"/></svg>