<?xml version="1.0" encoding="UTF-8" standalone="no"?><!DOCTYPE svg PUBLIC "-//W3C//DTD SVG 1.1//EN" "http://www.w3.org/Graphics/SVG/1.1/DTD/svg11.dtd"><svg width="60px" height="58px" version="1.1" xmlns="http://www.w3.org/2000/svg" xmlns:xlink="http://www.w3.org/1999/xlink" xml:space="preserve" xmlns:serif="http://www.serif.com/" style="fill-rule:evenodd;clip-rule:evenodd;stroke-linejoin:round;stroke-miterlimit:1.41421;"><path d="M41.39,19.361c6.383,0.046 11.745,5.117 12.781,12.024c1.062,7.076 2.371,12.435 3.277,18.477c0.272,1.812 -0.188,3.666 -1.257,5.067c-1.069,1.402 -2.64,2.21 -4.294,2.21c-8.393,0 -21.918,0 -21.918,0l-0.039,0l-21.957,0c-1.654,0 -3.224,-0.808 -4.294,-2.21c-1.069,-1.401 -1.529,-3.255 -1.257,-5.067c0.907,-6.042 2.215,-11.401 3.277,-18.477c1.042,-6.938 6.447,-12.023 12.781,-12.024l1.933,0l0.162,-6.856c-9.341,-1.097 -15.393,-5.612 -19.195,-12.466l57.1,0c-3.801,6.854 -9.854,11.369 -19.195,12.466l0.163,6.856l1.932,0Zm-4.69,9.688c-1.913,-1.347 -4.244,-2.139 -6.76,-2.139c-6.488,0 -11.756,5.268 -11.756,11.756c0,6.488 5.268,11.756 11.756,11.756c6.488,0 11.756,-5.268 11.756,-11.756c0,-2.509 -0.788,-4.836 -2.129,-6.746c-0.045,0.065 -0.095,0.129 -0.15,0.19c-2.576,2.678 -5.254,5.257 -7.882,7.884c-1.443,1.388 -4.929,-0.649 -2.967,-2.853c2.577,-2.679 5.255,-5.257 7.882,-7.885c0.079,-0.075 0.162,-0.144 0.25,-0.207Z" style="fill:#404040;"/></svg>