<?xml version="1.0" encoding="UTF-8" standalone="no"?><!DOCTYPE svg PUBLIC "-//W3C//DTD SVG 1.1//EN" "http://www.w3.org/Graphics/SVG/1.1/DTD/svg11.dtd"><svg width="54px" height="61px" version="1.1" xmlns="http://www.w3.org/2000/svg" xmlns:xlink="http://www.w3.org/1999/xlink" xml:space="preserve" xmlns:serif="http://www.serif.com/" style="fill-rule:evenodd;clip-rule:evenodd;stroke-linejoin:round;stroke-miterlimit:1.41421;"><path d="M41.559,19.25l0,-3.75c0,-8.271 -6.729,-15 -15,-15c-8.271,0 -15,6.729 -15,15l0,3.75l-11.25,0l0,31.875c0,5.178 4.198,9.375 9.375,9.375l33.75,0c5.178,0 9.375,-4.197 9.375,-9.375l0,-31.875l-11.25,0Zm-22.5,-3.75c0,-4.136 3.365,-7.5 7.5,-7.5c4.136,0 7.5,3.364 7.5,7.5l0,3.75l-15,0l0,-3.75Zm18.75,14.062c-1.553,0 -2.812,-1.259 -2.812,-2.812c0,-1.553 1.259,-2.813 2.812,-2.813c1.554,0 2.813,1.26 2.813,2.813c0,1.553 -1.259,2.812 -2.813,2.812Zm-22.5,0c-1.553,0 -2.812,-1.259 -2.812,-2.812c0,-1.553 1.259,-2.813 2.812,-2.813c1.554,0 2.813,1.26 2.813,2.813c0,1.553 -1.259,2.812 -2.813,2.812Z" style="fill:#404040;fill-rule:nonzero;"/></svg>