<?xml version="1.0" encoding="UTF-8" standalone="no"?><!DOCTYPE svg PUBLIC "-//W3C//DTD SVG 1.1//EN" "http://www.w3.org/Graphics/SVG/1.1/DTD/svg11.dtd"><svg width="62px" height="50px" version="1.1" xmlns="http://www.w3.org/2000/svg" xmlns:xlink="http://www.w3.org/1999/xlink" xml:space="preserve" xmlns:serif="http://www.serif.com/" style="fill-rule:evenodd;clip-rule:evenodd;stroke-linejoin:round;stroke-miterlimit:1.41421;"><path d="M53.697,24.552l-13.556,0l0,-10.544l4.151,0l9.405,9.405l0,1.139Zm-7.531,19.581c-2.495,0 -4.519,-2.024 -4.519,-4.519c0,-2.494 2.024,-4.518 4.519,-4.518c2.494,0 4.518,2.024 4.518,4.518c0,2.495 -2.024,4.519 -4.518,4.519m-30.125,0c-2.495,0 -4.519,-2.024 -4.519,-4.519c0,-2.494 2.024,-4.518 4.519,-4.518c2.494,0 4.518,2.024 4.518,4.518c0,2.495 -2.024,4.519 -4.518,4.519m43.681,-10.544l-1.506,0l0,-10.176c0,-1.196 -0.48,-2.344 -1.328,-3.192l-9.404,-9.404c-0.848,-0.847 -1.996,-1.328 -3.192,-1.328l-4.151,0l0,-4.518c0,-2.495 -2.024,-4.519 -4.519,-4.519l-24.1,0c-2.495,0 -4.519,2.024 -4.519,4.519l0,4.518l-5.272,0c-0.414,0 -0.753,0.339 -0.753,0.754l0,1.506c0,0.414 0.339,0.753 0.753,0.753l25.607,0c0.414,0 0.753,0.339 0.753,0.753l0,1.506c0,0.415 -0.339,0.753 -0.753,0.753l-22.594,0c-0.414,0 -0.753,0.339 -0.753,0.754l0,1.506c0,0.414 0.339,0.753 0.753,0.753l19.581,0c0.414,0 0.753,0.339 0.753,0.753l0,1.506c0,0.415 -0.339,0.753 -0.753,0.753l-22.594,0c-0.414,0 -0.753,0.339 -0.753,0.754l0,1.506c0,0.414 0.339,0.753 0.753,0.753l19.582,0c0.414,0 0.753,0.339 0.753,0.753l0,1.506c0,0.415 -0.339,0.753 -0.753,0.753l-14.31,0l0,12.05c0,4.99 4.048,9.038 9.038,9.038c4.989,0 9.037,-4.048 9.037,-9.038l12.05,0c0,4.99 4.048,9.038 9.038,9.038c4.989,0 9.037,-4.048 9.037,-9.038l4.519,0c0.828,0 1.506,-0.677 1.506,-1.506l0,-3.012c0,-0.829 -0.678,-1.507 -1.506,-1.507" style="fill:#404040;fill-rule:nonzero;"/></svg>