<?xml version="1.0" encoding="utf-8"?>
<!-- Generator: Adobe Illustrator 25.2.3, SVG Export Plug-In . SVG Version: 6.00 Build 0)  -->
<svg version="1.1" id="Layer_1" xmlns="http://www.w3.org/2000/svg" xmlns:xlink="http://www.w3.org/1999/xlink" x="0px" y="0px"
	 viewBox="0 0 512 512" style="enable-background:new 0 0 512 512;" xml:space="preserve">
<path d="M359.4,139.4c-33.6-10.7-71.6-0.6-89.4,5.5c8.8-15.9,26.3-36.9,58-42c52.6-8.4,74.7,15.6,85.7,21c11,5.4,24,6.8,24,6.8
	s-14.4-22.2-19.9-35c-5.4-12.8-33.1-51.1-90.4-45.4c-55.5,5.5-64.2,49.7-69.4,75.3l-1.8,2.4c0,0,0.8-70.9-61.9-71.7
	c-33.3-0.4-69,23.5-69,23.5s14.5,4.2,28.2,7.5c39.3,9.4,75.9,8.2,79.8,38.6c-15.6-11.7-45.6-27.4-90.5-22.4
	c-49,5.5-80.3,36.9-81.1,72c-0.4,18.6-11.3,34.1-11.3,34.1s29.5-1.5,44-24.6c11.1-17.7,19.9-41.9,72.8-45c28.1-1.7,45.2,1.9,55.4,6
	l0.6,0.5c0,0,0.4,0.6,1,1.6c-13.8,0.3-34.4,2.1-57.8,8.9c-47.9,13.9-79,60.6-78.5,111.7c0.5,51.1,21.9,64.3,21.9,64.3
	s1.9-19.9,21.9-46.5c15.2-20.2,26.1-57.4,43.3-79.5c21.8-28,45.7-38.7,56.3-42.3c0,0.1,0.1,0.2,0.1,0.3
	c-10.6,7.5-48.7,39.8-45.3,117.6c3.3,75.7,65.8,85.1,69.9,88.7c0,0-6.7-17.9-7.3-37.2c-0.7-22.4-9.4-70.5-11.7-95.6
	c-2.3-25.2,4.2-44.7,11-57.5c3.4,8.9,10.2,19,14.1,29.1c8,20.3,17.4,46.7,21.6,101.9c4.2,55.2-10.2,133.2-5.7,144.8
	s62.5,10.4,68.2,1.2c5.7-9.3,10.2-84.6,0-146c-8.5-51.2-42.3-108.4-55.3-124.7c-2.8-3.6-8.5-10.9-14.7-17.3
	c19.9,2.8,57.6,11.9,84.2,40.5c37.7,40.7,56.3,45.5,62,62.2c0,0,8.9-13.8,5.9-46.9C425.3,192.8,405.2,154,359.4,139.4z"/>
</svg>
