<?xml version="1.0" encoding="UTF-8" standalone="no"?><!DOCTYPE svg PUBLIC "-//W3C//DTD SVG 1.1//EN" "http://www.w3.org/Graphics/SVG/1.1/DTD/svg11.dtd"><svg width="60px" height="58px" version="1.1" xmlns="http://www.w3.org/2000/svg" xmlns:xlink="http://www.w3.org/1999/xlink" xml:space="preserve" xmlns:serif="http://www.serif.com/" style="fill-rule:evenodd;clip-rule:evenodd;stroke-linejoin:round;stroke-miterlimit:1.41421;"><path d="M58.362,31.933l-8.359,0l0,10.031l-3.344,-2.225l-3.344,2.225l0,-10.031l-8.359,0c-0.92,0 -1.672,0.753 -1.672,1.672l0,20.063c0,0.919 0.752,1.671 1.672,1.671l23.406,0c0.92,0 1.672,-0.752 1.672,-1.671l0,-20.063c0,-0.919 -0.752,-1.672 -1.672,-1.672Zm-40.125,-6.687l23.406,0c0.92,0 1.672,-0.753 1.672,-1.672l0,-20.063c0,-0.919 -0.752,-1.672 -1.672,-1.672l-8.359,0l0,10.032l-3.344,-2.226l-3.344,2.226l0,-10.032l-8.359,0c-0.919,0 -1.672,0.753 -1.672,1.672l0,20.063c0,0.919 0.753,1.672 1.672,1.672Zm6.688,6.687l-8.36,0l0,10.031l-3.344,-2.225l-3.343,2.225l0,-10.031l-8.36,0c-0.919,0 -1.672,0.753 -1.672,1.672l0,20.063c0,0.919 0.753,1.671 1.672,1.671l23.407,0c0.919,0 1.671,-0.752 1.671,-1.671l0,-20.063c0,-0.919 -0.752,-1.672 -1.671,-1.672Z" style="fill:#404040;fill-rule:nonzero;"/></svg>