<?xml version="1.0" encoding="UTF-8" standalone="no"?><!DOCTYPE svg PUBLIC "-//W3C//DTD SVG 1.1//EN" "http://www.w3.org/Graphics/SVG/1.1/DTD/svg11.dtd"><svg width="61px" height="60px" version="1.1" xmlns="http://www.w3.org/2000/svg" xmlns:xlink="http://www.w3.org/1999/xlink" xml:space="preserve" xmlns:serif="http://www.serif.com/" style="fill-rule:evenodd;clip-rule:evenodd;stroke-linejoin:round;stroke-miterlimit:1.41421;"><path d="M30.235,0c-16.569,0 -30,13.431 -30,30c0,16.569 13.431,30 30,30c16.569,0 30,-13.431 30,-30c0,-16.569 -13.431,-30 -30,-30Zm19.355,26.069l0,0.838c0,0.71 -0.401,1.36 -1.036,1.676l-1.862,0.932c-0.601,0.301 -1.32,0.256 -1.879,-0.117l-2.203,-1.469c-0.481,-0.32 -1.084,-0.401 -1.633,-0.219l-0.32,0.107c-1.174,0.39 -1.653,1.789 -0.967,2.818l1.602,2.402c0.347,0.522 0.932,0.835 1.559,0.835l0.993,0c1.036,0 1.875,0.84 1.875,1.875l0,1.372c0,0.405 -0.132,0.801 -0.375,1.125l-2.267,3.022c-0.171,0.23 -0.289,0.496 -0.342,0.778l-0.52,2.761c-0.075,0.398 -0.277,0.761 -0.576,1.036c-1.146,1.05 -2.162,2.234 -3.024,3.527l-1.576,2.365c-0.622,0.933 -1.672,1.495 -2.794,1.495c-1.271,0 -2.433,-0.718 -3.002,-1.855c-0.663,-1.326 -1.008,-2.788 -1.008,-4.269l0,-3.616c0,-1.036 -0.839,-1.875 -1.875,-1.875l-3.13,0c-1.753,0 -3.433,-0.697 -4.673,-1.936c-1.239,-1.239 -1.935,-2.921 -1.936,-4.673l0,-1.7c0,-2.08 0.98,-4.038 2.643,-5.287l3.337,-2.502c1.144,-0.858 2.535,-1.322 3.965,-1.323l0.108,0c1.025,0 2.038,0.239 2.955,0.698l1.781,0.891c0.445,0.222 0.959,0.259 1.431,0.101l5.723,-1.907c0.765,-0.256 1.282,-0.972 1.282,-1.779c0,-1.035 -0.84,-1.875 -1.875,-1.875l-1.221,0c-0.497,0 -0.974,-0.197 -1.326,-0.549l-0.837,-0.837c-0.351,-0.351 -0.828,-0.549 -1.325,-0.549l-10.894,0c-1.035,0 -1.875,-0.84 -1.875,-1.875l0,-0.532c0,-0.86 0.586,-1.61 1.421,-1.82l1.748,-0.436c0.452,-0.114 0.846,-0.391 1.105,-0.779l0.978,-1.465c0.347,-0.522 0.932,-0.835 1.559,-0.835l2.929,0c1.035,0 1.875,-0.84 1.875,-1.875l0,-2.625c9.583,1.553 17.28,8.737 19.587,18.05l-2.23,0c-1.035,0 -1.875,0.839 -1.875,1.875Z" style="fill:#404040;fill-rule:nonzero;"/></svg>